<?xml version="1.0" encoding="UTF-8"?><svg id="uuid-a95c277d-1c83-4a70-b1ed-319b041007b7" xmlns="http://www.w3.org/2000/svg" xmlns:xlink="http://www.w3.org/1999/xlink" viewBox="0 0 1280 720"><defs><clipPath id="uuid-e6a9242c-16f9-4f5c-9232-ebfbe19bbe58"><rect y="0" width="1280" height="720" fill="none"/></clipPath><linearGradient id="uuid-47747ce6-8914-40c0-9a3d-3da668679e3f" x1="758" y1="624.96" x2="758" y2="424.96" gradientTransform="translate(0 719.46) scale(1 -1)" gradientUnits="userSpaceOnUse"><stop offset="0" stop-color="#ffdd9c"/><stop offset=".5" stop-color="#ffd78e"/><stop offset="1" stop-color="#ffd479"/></linearGradient><linearGradient id="uuid-a458bb68-0286-4ce8-b734-f259336ecdec" x1="767.5" y1="294.96" x2="767.5" y2="63.96" gradientTransform="translate(0 719.46) scale(1 -1)" gradientUnits="userSpaceOnUse"><stop offset="0" stop-color="#ffdd9c"/><stop offset=".5" stop-color="#ffd78e"/><stop offset="1" stop-color="#ffd479"/></linearGradient><linearGradient id="uuid-c57d2189-991f-4029-aebb-2619657a54ba" x1="403" y1="624.96" x2="403" y2="424.96" gradientTransform="translate(0 719.46) scale(1 -1)" gradientUnits="userSpaceOnUse"><stop offset="0" stop-color="#ffdd9c"/><stop offset=".5" stop-color="#ffd78e"/><stop offset="1" stop-color="#ffd479"/></linearGradient></defs><g clip-path="url(#uuid-e6a9242c-16f9-4f5c-9232-ebfbe19bbe58)"><rect y="0" width="1280" height="720" fill="#fff"/><path d="m642.5,127.83c0-18.41,14.92-33.33,33.33-33.33h164.33c18.41,0,33.33,14.92,33.33,33.33v133.33c0,18.41-14.92,33.33-33.33,33.33h-164.33c-18.41,0-33.33-14.92-33.33-33.33V127.83Z" fill="url(#uuid-47747ce6-8914-40c0-9a3d-3da668679e3f)" fill-rule="evenodd" stroke="#ffc000" stroke-miterlimit="8" stroke-width=".67"/><g isolation="isolate"><text transform="translate(686.95 121)" font-family="ArialMT, Arial" font-size="18" isolation="isolate" letter-spacing="-.03em"><tspan x="0" y="0">Forms as a Cloud </tspan></text><text transform="translate(652.61 145)" font-family="ArialMT, Arial" font-size="18" isolation="isolate" letter-spacing="-.03em"><tspan x="0" y="0">Zona protegida de servicios </tspan></text></g><path d="m665.5,173.5c0-8.84,7.16-16,16-16h152c8.84,0,16,7.16,16,16v64c0,8.84-7.16,16-16,16h-152c-8.84,0-16-7.16-16-16v-64Z" fill="#ed7d31" fill-rule="evenodd" stroke="#ffc000" stroke-miterlimit="8" stroke-width=".67"/><g isolation="isolate"><g isolation="isolate"><path d="m721.37,174.58l1.82.58c-.28,1.02-.74,1.77-1.39,2.26s-1.47.74-2.47.74c-1.24,0-2.25-.42-3.05-1.27-.79-.84-1.19-2-1.19-3.46,0-1.55.4-2.75,1.2-3.61.8-.86,1.85-1.29,3.15-1.29,1.14,0,2.06.34,2.77,1.01.42.4.74.97.95,1.71l-1.86.44c-.11-.48-.34-.86-.69-1.14-.35-.28-.77-.42-1.27-.42-.69,0-1.25.25-1.68.74-.43.49-.64,1.3-.64,2.41,0,1.18.21,2.01.63,2.51.42.5.97.75,1.65.75.5,0,.93-.16,1.29-.48.36-.32.62-.82.77-1.5Z"/><path d="m724.38,174.53c0-.59.15-1.17.44-1.72.29-.55.71-.98,1.24-1.27.54-.29,1.13-.44,1.79-.44,1.02,0,1.86.33,2.51.99.65.66.98,1.5.98,2.51s-.33,1.87-.99,2.54c-.66.67-1.49,1.01-2.48,1.01-.62,0-1.21-.14-1.77-.42-.56-.28-.99-.69-1.28-1.23-.29-.54-.44-1.2-.44-1.97Zm1.83.09c0,.67.16,1.18.48,1.54s.71.53,1.17.53.86-.18,1.17-.53c.32-.36.47-.87.47-1.55s-.16-1.17-.47-1.52c-.31-.36-.71-.53-1.17-.53s-.86.18-1.17.53-.48.87-.48,1.54Z"/><path d="m738.86,178h-1.78v-3.44c0-.73-.04-1.2-.11-1.41s-.2-.38-.37-.5c-.17-.12-.38-.18-.62-.18-.31,0-.59.08-.83.25-.25.17-.41.39-.5.67-.09.28-.14.79-.14,1.55v3.05h-1.78v-6.74h1.66v.99c.59-.76,1.33-1.14,2.22-1.14.39,0,.75.07,1.08.21.33.14.57.32.74.54.17.22.28.47.35.75.07.28.1.68.1,1.2v4.19Z"/><path d="m743.76,171.26v1.42h-1.22v2.72c0,.55.01.87.04.96s.08.17.16.22c.08.06.18.09.3.09.17,0,.4-.06.72-.17l.15,1.38c-.42.18-.88.27-1.41.27-.32,0-.61-.05-.87-.16-.26-.11-.45-.25-.57-.42-.12-.17-.2-.4-.25-.69-.04-.21-.06-.63-.06-1.26v-2.94h-.82v-1.42h.82v-1.34l1.79-1.04v2.38h1.22Z"/><path d="m748.9,175.85l1.78.3c-.23.65-.59,1.15-1.08,1.49s-1.11.51-1.85.51c-1.17,0-2.04-.38-2.6-1.15-.44-.61-.67-1.39-.67-2.32,0-1.12.29-1.99.88-2.62s1.32-.95,2.21-.95c1,0,1.79.33,2.37.99.58.66.86,1.68.83,3.04h-4.47c.01.53.16.94.43,1.23.27.29.62.44,1.03.44.28,0,.51-.08.7-.23s.33-.4.43-.74Zm.1-1.8c-.01-.52-.15-.91-.4-1.18s-.56-.4-.93-.4c-.39,0-.71.14-.96.43s-.38.67-.38,1.16h2.67Z"/><path d="m758.36,178h-1.78v-3.44c0-.73-.04-1.2-.11-1.41s-.2-.38-.37-.5c-.17-.12-.38-.18-.62-.18-.31,0-.59.08-.83.25-.25.17-.41.39-.5.67-.09.28-.14.79-.14,1.55v3.05h-1.78v-6.74h1.66v.99c.59-.76,1.33-1.14,2.22-1.14.39,0,.75.07,1.08.21.33.14.57.32.74.54.17.22.28.47.35.75.07.28.1.68.1,1.2v4.19Z"/><path d="m764.07,175.85l1.78.3c-.23.65-.59,1.15-1.08,1.49s-1.11.51-1.85.51c-1.17,0-2.04-.38-2.6-1.15-.44-.61-.67-1.39-.67-2.32,0-1.12.29-1.99.88-2.62s1.32-.95,2.21-.95c1,0,1.79.33,2.37.99.58.66.86,1.68.83,3.04h-4.47c.01.53.16.94.43,1.23.27.29.62.44,1.03.44.28,0,.51-.08.7-.23s.33-.4.43-.74Zm.1-1.8c-.01-.52-.15-.91-.4-1.18s-.56-.4-.93-.4c-.39,0-.71.14-.96.43s-.38.67-.38,1.16h2.67Z"/><path d="m773.58,178h-1.66v-.99c-.28.38-.6.67-.97.86-.37.19-.75.28-1.13.28-.77,0-1.44-.31-1.99-.94-.55-.62-.83-1.5-.83-2.61s.27-2.01.81-2.61c.54-.59,1.22-.89,2.04-.89.75,0,1.4.31,1.96.94v-3.35h1.78v9.31Zm-4.76-3.52c0,.72.1,1.24.3,1.56.29.47.69.7,1.21.7.41,0,.76-.17,1.05-.52.29-.35.43-.87.43-1.57,0-.77-.14-1.33-.42-1.67s-.64-.51-1.07-.51-.78.17-1.06.5c-.29.34-.43.84-.43,1.51Z"/><path d="m774.93,174.53c0-.59.15-1.17.44-1.72.29-.55.71-.98,1.24-1.27.54-.29,1.13-.44,1.79-.44,1.02,0,1.86.33,2.51.99.65.66.98,1.5.98,2.51s-.33,1.87-.99,2.54c-.66.67-1.49,1.01-2.48,1.01-.62,0-1.21-.14-1.77-.42-.56-.28-.99-.69-1.28-1.23-.29-.54-.44-1.2-.44-1.97Zm1.83.09c0,.67.16,1.18.48,1.54s.71.53,1.17.53.86-.18,1.17-.53c.32-.36.47-.87.47-1.55s-.16-1.17-.47-1.52c-.31-.36-.71-.53-1.17-.53s-.86.18-1.17.53-.48.87-.48,1.54Z"/><path d="m784.99,178h-1.78v-6.74h1.66v.96c.28-.45.54-.75.76-.89s.48-.22.77-.22c.41,0,.8.11,1.17.34l-.55,1.55c-.3-.19-.58-.29-.84-.29s-.46.07-.63.21c-.17.14-.31.39-.41.75-.1.36-.15,1.11-.15,2.26v2.08Z"/><path d="m794.34,178l-3.33-9.31h2.04l2.35,6.89,2.28-6.89h1.99l-3.33,9.31h-2.01Z"/><path d="m806.27,176.34v1.66h-6.25c.07-.63.27-1.22.61-1.78.34-.56,1.01-1.3,2.01-2.23.8-.75,1.3-1.26,1.48-1.52.25-.37.37-.73.37-1.09,0-.4-.11-.7-.32-.92-.21-.21-.51-.32-.89-.32s-.67.11-.89.34c-.22.22-.35.6-.38,1.12l-1.78-.18c.11-.98.44-1.69,1-2.11.56-.43,1.26-.64,2.09-.64.92,0,1.64.25,2.17.74.52.5.79,1.11.79,1.85,0,.42-.08.82-.23,1.2s-.39.78-.71,1.19c-.22.28-.61.67-1.17,1.19-.56.52-.92.86-1.07,1.03-.15.17-.27.33-.37.5h3.54Z"/><path d="m683.29,193.6h-1.66v-.99c-.27.38-.6.67-.97.86-.37.19-.75.28-1.13.28-.77,0-1.44-.31-1.99-.94-.55-.62-.83-1.5-.83-2.61s.27-2.01.81-2.61c.54-.59,1.22-.89,2.04-.89.75,0,1.41.31,1.96.94v-3.35h1.78v9.31Zm-4.76-3.52c0,.72.1,1.24.3,1.56.29.47.69.7,1.21.7.41,0,.76-.17,1.05-.52.29-.35.43-.87.43-1.57,0-.77-.14-1.33-.42-1.67s-.64-.51-1.07-.51-.78.17-1.06.5c-.29.34-.43.84-.43,1.51Z"/><path d="m688.95,191.45l1.78.3c-.23.65-.59,1.15-1.08,1.49-.49.34-1.11.51-1.85.51-1.17,0-2.04-.38-2.6-1.15-.44-.61-.67-1.39-.67-2.32,0-1.12.29-1.99.88-2.62s1.32-.95,2.22-.95c1,0,1.79.33,2.37.99.58.66.86,1.68.83,3.04h-4.47c.01.53.16.94.43,1.23.28.29.62.44,1.03.44.28,0,.51-.08.71-.23s.33-.4.43-.74Zm.1-1.8c-.01-.52-.15-.91-.4-1.18s-.56-.4-.93-.4c-.39,0-.71.14-.96.43s-.38.67-.37,1.16h2.67Z"/><path d="m695.11,186.86h.99v-.51c0-.57.06-.99.18-1.27.12-.28.34-.51.67-.68.32-.18.73-.26,1.23-.26s1,.08,1.49.23l-.24,1.24c-.28-.07-.56-.1-.82-.1s-.44.06-.55.18c-.11.12-.17.35-.17.7v.48h1.33v1.4h-1.33v5.34h-1.78v-5.34h-.99v-1.4Z"/><path d="m699.8,190.13c0-.59.15-1.17.44-1.72.29-.55.71-.98,1.24-1.27.54-.29,1.13-.44,1.79-.44,1.02,0,1.86.33,2.51.99.65.66.98,1.5.98,2.51s-.33,1.87-.99,2.54-1.49,1.01-2.49,1.01c-.62,0-1.21-.14-1.77-.42s-.99-.69-1.28-1.23c-.29-.54-.44-1.2-.44-1.97Zm1.83.09c0,.67.16,1.18.48,1.54s.71.53,1.17.53.86-.18,1.17-.53.47-.87.47-1.55-.16-1.17-.47-1.52-.71-.53-1.17-.53-.86.18-1.17.53-.48.87-.48,1.54Z"/><path d="m709.87,193.6h-1.78v-6.74h1.66v.96c.28-.45.54-.75.76-.89.23-.14.48-.22.77-.22.41,0,.8.11,1.17.34l-.55,1.55c-.3-.19-.58-.29-.84-.29s-.46.07-.63.21c-.17.14-.31.39-.41.75s-.15,1.11-.15,2.26v2.08Z"/><path d="m713.08,186.86h1.64v.92c.59-.72,1.29-1.07,2.1-1.07.43,0,.81.09,1.12.27s.58.45.78.81c.3-.36.62-.63.96-.81s.71-.27,1.1-.27c.5,0,.91.1,1.26.3s.6.5.77.88c.12.29.18.75.18,1.4v4.31h-1.78v-3.85c0-.67-.06-1.1-.18-1.29-.17-.25-.42-.38-.76-.38-.25,0-.48.08-.71.23-.22.15-.38.38-.48.67-.1.29-.15.76-.15,1.39v3.24h-1.78v-3.69c0-.66-.03-1.08-.1-1.27s-.16-.33-.29-.42c-.13-.09-.31-.14-.54-.14-.27,0-.52.07-.74.22-.22.15-.38.36-.47.64-.1.28-.14.74-.14,1.39v3.28h-1.78v-6.74Z"/><path d="m729.21,193.6v-1.01c-.25.36-.57.64-.97.85-.4.21-.82.31-1.27.31s-.86-.1-1.22-.3c-.36-.2-.62-.48-.78-.84-.16-.36-.24-.86-.24-1.49v-4.27h1.78v3.1c0,.95.03,1.53.1,1.74s.19.38.36.51c.17.12.39.19.66.19.3,0,.58-.08.82-.25s.41-.37.5-.62c.09-.25.13-.85.13-1.82v-2.84h1.78v6.74h-1.66Z"/><path d="m732.72,193.6v-9.31h1.78v9.31h-1.78Z"/><path d="m737.66,188.92l-1.62-.29c.18-.65.5-1.13.94-1.45s1.1-.47,1.98-.47c.8,0,1.39.09,1.78.28.39.19.66.43.82.72.16.29.24.82.24,1.6l-.02,2.08c0,.59.03,1.03.09,1.31.06.28.16.58.32.9h-1.76c-.05-.12-.1-.29-.17-.53-.03-.11-.05-.17-.06-.21-.3.3-.63.52-.98.67-.35.15-.72.22-1.11.22-.69,0-1.24-.19-1.64-.56-.4-.38-.6-.85-.6-1.43,0-.38.09-.72.27-1.02.18-.3.44-.53.76-.69.33-.16.8-.3,1.42-.42.83-.16,1.41-.3,1.73-.44v-.18c0-.34-.08-.59-.25-.73-.17-.15-.49-.22-.96-.22-.32,0-.56.06-.74.19s-.32.34-.43.66Zm2.39,1.45c-.23.08-.59.17-1.09.27-.5.11-.82.21-.97.31-.23.17-.35.37-.35.63s.09.47.28.65c.19.18.42.27.71.27.32,0,.63-.11.92-.32.22-.16.36-.36.42-.59.05-.15.07-.44.07-.87v-.36Z"/><path d="m745.27,193.6h-1.78v-6.74h1.66v.96c.28-.45.54-.75.76-.89s.48-.22.77-.22c.41,0,.8.11,1.17.34l-.55,1.55c-.3-.19-.58-.29-.84-.29s-.46.07-.63.21c-.17.14-.31.39-.41.75-.1.36-.15,1.11-.15,2.26v2.08Z"/><path d="m748.62,185.94v-1.65h1.78v1.65h-1.78Zm0,7.66v-6.74h1.78v6.74h-1.78Z"/><path d="m751.82,190.13c0-.59.15-1.17.44-1.72.29-.55.71-.98,1.24-1.27.54-.29,1.13-.44,1.79-.44,1.02,0,1.86.33,2.51.99.65.66.98,1.5.98,2.51s-.33,1.87-.99,2.54-1.49,1.01-2.49,1.01c-.62,0-1.21-.14-1.77-.42s-.99-.69-1.28-1.23c-.29-.54-.44-1.2-.44-1.97Zm1.83.09c0,.67.16,1.18.48,1.54s.71.53,1.17.53.86-.18,1.17-.53.47-.87.47-1.55-.16-1.17-.47-1.52-.71-.53-1.17-.53-.86.18-1.17.53-.48.87-.48,1.54Z"/><path d="m759.54,191.68l1.79-.27c.08.35.23.61.46.79.23.18.56.27.98.27.46,0,.81-.08,1.04-.25.16-.12.23-.28.23-.48,0-.14-.04-.25-.13-.34-.09-.08-.29-.16-.6-.23-1.44-.32-2.35-.61-2.74-.87-.53-.36-.8-.87-.8-1.52,0-.58.23-1.08.69-1.47.46-.4,1.18-.6,2.15-.6s1.61.15,2.06.45c.45.3.76.75.93,1.33l-1.68.31c-.07-.26-.21-.46-.41-.6-.2-.14-.49-.21-.86-.21-.47,0-.81.07-1.01.2-.13.09-.2.21-.2.36,0,.13.06.23.18.32.16.12.72.29,1.67.5.95.22,1.61.48,1.99.79.37.32.56.76.56,1.33,0,.62-.26,1.15-.77,1.59-.52.44-1.28.67-2.29.67-.92,0-1.65-.19-2.18-.56s-.89-.88-1.05-1.52Z"/><path d="m772.35,188.92l-1.62-.29c.18-.65.5-1.13.94-1.45s1.1-.47,1.98-.47c.8,0,1.39.09,1.78.28.39.19.66.43.82.72.16.29.24.82.24,1.6l-.02,2.08c0,.59.03,1.03.09,1.31.06.28.16.58.32.9h-1.76c-.05-.12-.1-.29-.17-.53-.03-.11-.05-.17-.06-.21-.3.3-.63.52-.98.67-.35.15-.72.22-1.11.22-.69,0-1.24-.19-1.64-.56-.4-.38-.6-.85-.6-1.43,0-.38.09-.72.27-1.02.18-.3.44-.53.76-.69.33-.16.8-.3,1.42-.42.83-.16,1.41-.3,1.73-.44v-.18c0-.34-.08-.59-.25-.73-.17-.15-.49-.22-.96-.22-.32,0-.56.06-.74.19s-.32.34-.43.66Zm2.39,1.45c-.23.08-.59.17-1.09.27-.5.11-.82.21-.97.31-.23.17-.35.37-.35.63s.09.47.28.65c.19.18.42.27.71.27.32,0,.63-.11.92-.32.22-.16.36-.36.42-.59.05-.15.07-.44.07-.87v-.36Z"/><path d="m784.42,193.6h-1.66v-.99c-.28.38-.6.67-.97.86-.37.19-.75.28-1.13.28-.77,0-1.44-.31-1.99-.94-.55-.62-.83-1.5-.83-2.61s.27-2.01.81-2.61c.54-.59,1.22-.89,2.04-.89.75,0,1.4.31,1.96.94v-3.35h1.78v9.31Zm-4.76-3.52c0,.72.1,1.24.3,1.56.29.47.69.7,1.21.7.41,0,.76-.17,1.05-.52.29-.35.43-.87.43-1.57,0-.77-.14-1.33-.42-1.67s-.64-.51-1.07-.51-.78.17-1.06.5c-.29.34-.43.84-.43,1.51Z"/><path d="m787.52,188.92l-1.62-.29c.18-.65.5-1.13.94-1.45s1.1-.47,1.98-.47c.8,0,1.39.09,1.78.28.39.19.66.43.82.72.16.29.24.82.24,1.6l-.02,2.08c0,.59.03,1.03.09,1.31.06.28.16.58.32.9h-1.76c-.05-.12-.1-.29-.17-.53-.03-.11-.05-.17-.06-.21-.3.3-.63.52-.98.67-.35.15-.72.22-1.11.22-.69,0-1.24-.19-1.64-.56-.4-.38-.6-.85-.6-1.43,0-.38.09-.72.27-1.02.18-.3.44-.53.76-.69.33-.16.8-.3,1.42-.42.83-.16,1.41-.3,1.73-.44v-.18c0-.34-.08-.59-.25-.73-.17-.15-.49-.22-.96-.22-.32,0-.56.06-.74.19s-.32.34-.43.66Zm2.39,1.45c-.23.08-.59.17-1.09.27-.5.11-.82.21-.97.31-.23.17-.35.37-.35.63s.09.47.28.65c.19.18.42.27.71.27.32,0,.63-.11.92-.32.22-.16.36-.36.42-.59.05-.15.07-.44.07-.87v-.36Z"/><path d="m793.36,186.86h1.66v.99c.22-.34.51-.61.88-.83s.78-.32,1.23-.32c.78,0,1.45.31,1.99.92.55.61.82,1.47.82,2.56s-.27,2-.83,2.62c-.55.62-1.22.94-2,.94-.37,0-.71-.07-1.01-.22-.3-.15-.62-.4-.96-.76v3.4h-1.78v-9.31Zm1.76,3.26c0,.76.15,1.32.45,1.68.3.36.67.54,1.1.54s.76-.17,1.04-.5c.27-.33.41-.88.41-1.63,0-.71-.14-1.23-.42-1.57-.28-.34-.63-.51-1.05-.51s-.8.17-1.09.5c-.29.34-.43.83-.43,1.5Z"/><path d="m804.45,186.86v1.42h-1.22v2.72c0,.55.01.87.04.96s.08.17.16.22c.08.06.18.09.3.09.17,0,.4-.06.72-.17l.15,1.38c-.42.18-.88.27-1.41.27-.32,0-.61-.05-.87-.16-.26-.11-.45-.25-.57-.42-.12-.17-.2-.4-.25-.69-.04-.21-.06-.63-.06-1.26v-2.94h-.82v-1.42h.82v-1.34l1.79-1.04v2.38h1.22Z"/><path d="m807.02,188.92l-1.62-.29c.18-.65.5-1.13.94-1.45s1.1-.47,1.98-.47c.8,0,1.39.09,1.78.28.39.19.66.43.82.72.16.29.24.82.24,1.6l-.02,2.08c0,.59.03,1.03.09,1.31.06.28.16.58.32.9h-1.76c-.05-.12-.1-.29-.17-.53-.03-.11-.05-.17-.06-.21-.3.3-.63.52-.98.67-.35.15-.72.22-1.11.22-.69,0-1.24-.19-1.64-.56-.4-.38-.6-.85-.6-1.43,0-.38.09-.72.27-1.02.18-.3.44-.53.76-.69.33-.16.8-.3,1.42-.42.83-.16,1.41-.3,1.73-.44v-.18c0-.34-.08-.59-.25-.73-.17-.15-.49-.22-.96-.22-.32,0-.56.06-.74.19s-.32.34-.43.66Zm2.39,1.45c-.23.08-.59.17-1.09.27-.5.11-.82.21-.97.31-.23.17-.35.37-.35.63s.09.47.28.65c.19.18.42.27.71.27.32,0,.63-.11.92-.32.22-.16.36-.36.42-.59.05-.15.07-.44.07-.87v-.36Z"/><path d="m812.84,193.6v-9.31h1.78v3.35c.55-.63,1.2-.94,1.96-.94.82,0,1.5.3,2.04.89.54.59.81,1.45.81,2.56s-.27,2.04-.82,2.66c-.55.62-1.21.93-2,.93-.39,0-.76-.1-1.14-.29-.37-.19-.7-.48-.97-.85v.99h-1.66Zm1.77-3.52c0,.7.11,1.21.33,1.55.31.47.72.71,1.23.71.39,0,.73-.17,1.01-.5.28-.34.42-.87.42-1.59,0-.77-.14-1.33-.42-1.67s-.64-.51-1.07-.51-.78.17-1.07.5c-.28.33-.42.84-.42,1.51Z"/><path d="m820.85,193.6v-9.31h1.78v9.31h-1.78Z"/><path d="m828.37,191.45l1.78.3c-.23.65-.59,1.15-1.08,1.49-.49.34-1.11.51-1.85.51-1.17,0-2.04-.38-2.6-1.15-.44-.61-.67-1.39-.67-2.32,0-1.12.29-1.99.88-2.62s1.32-.95,2.22-.95c1,0,1.79.33,2.37.99.58.66.86,1.68.83,3.04h-4.47c.01.53.16.94.43,1.23.28.29.62.44,1.03.44.28,0,.51-.08.71-.23s.33-.4.43-.74Zm.1-1.8c-.01-.52-.15-.91-.4-1.18s-.56-.4-.93-.4c-.39,0-.71.14-.96.43s-.38.67-.37,1.16h2.67Z"/><path d="m831.07,191.68l1.79-.27c.08.35.23.61.46.79.23.18.56.27.98.27.46,0,.81-.08,1.04-.25.16-.12.23-.28.23-.48,0-.14-.04-.25-.13-.34-.09-.08-.29-.16-.6-.23-1.44-.32-2.35-.61-2.74-.87-.53-.36-.8-.87-.8-1.52,0-.58.23-1.08.69-1.47.46-.4,1.18-.6,2.15-.6s1.61.15,2.06.45c.45.3.76.75.93,1.33l-1.68.31c-.07-.26-.21-.46-.41-.6-.2-.14-.49-.21-.86-.21-.47,0-.81.07-1.01.2-.13.09-.2.21-.2.36,0,.13.06.23.18.32.16.12.72.29,1.67.5.95.22,1.61.48,1.99.79.37.32.56.76.56,1.33,0,.62-.26,1.15-.77,1.59-.52.44-1.28.67-2.29.67-.92,0-1.65-.19-2.18-.56s-.89-.88-1.05-1.52Z"/></g></g><path d="m678.5,271c0-1.93,1.57-3.5,3.5-3.5h171c1.93,0,3.5,1.57,3.5,3.5v14c0,1.93-1.57,3.5-3.5,3.5h-171c-1.93,0-3.5-1.57-3.5-3.5v-14Z" fill="#4472c4" fill-rule="evenodd" stroke="#2f528f" stroke-miterlimit="8" stroke-width="1.33"/><text transform="translate(695.24 281)" fill="#fff" font-family="ArialMT, Arial" font-size="13" isolation="isolate"><tspan x="0" y="0">API de obtención y envío</tspan></text><path d="m649.5,463c0-21.26,17.24-38.5,38.5-38.5h159c21.26,0,38.5,17.24,38.5,38.5v154c0,21.26-17.24,38.5-38.5,38.5h-159c-21.26,0-38.5-17.24-38.5-38.5v-154Z" fill="url(#uuid-a458bb68-0286-4ce8-b734-f259336ecdec)" fill-rule="evenodd" stroke="#ffc000" stroke-miterlimit="8" stroke-width=".67"/><text transform="translate(659.5 459)" font-family="ArialMT, Arial" font-size="19" isolation="isolate" letter-spacing="-.03em"><tspan x="0" y="0">Aplicación Front End React</tspan></text><path d="m659.5,578.17c0-7,5.67-12.67,12.67-12.67h77.67c7,0,12.67,5.67,12.67,12.67v50.67c0,7-5.67,12.67-12.67,12.67h-77.67c-7,0-12.67-5.67-12.67-12.67v-50.67Z" fill="#ed7d31" fill-rule="evenodd" stroke="#ffc000" stroke-miterlimit="8" stroke-width=".67"/><g isolation="isolate"><text transform="translate(677.82 587.28)" font-family="ArialMT, Arial" font-size="14" isolation="isolate"><tspan x="0" y="0">JavaScript </tspan></text><text transform="translate(676.65 606.29)" font-family="ArialMT, Arial" font-size="14" isolation="isolate"><tspan x="0" y="0">Bibliotecas </tspan><tspan x="5.06" y="16.8">para web </tspan></text></g><path d="m780.5,576.17c0-7,5.67-12.67,12.67-12.67h66.67c7,0,12.67,5.67,12.67,12.67v50.67c0,7-5.67,12.67-12.67,12.67h-66.67c-7,0-12.67-5.67-12.67-12.67v-50.67Z" fill="#ed7d31" fill-rule="evenodd" stroke="#ffc000" stroke-miterlimit="8" stroke-width=".67"/><g isolation="isolate"><text transform="translate(791.37 581.28)" font-family="ArialMT, Arial" font-size="14" isolation="isolate"><tspan x="0" y="0">Procesador </tspan><tspan x="7.78" y="16.8">React de </tspan><tspan x="1.18" y="33.6">formularios </tspan><tspan x="1.54" y="50.4" xml:space="preserve">adaptables   </tspan></text></g><path d="m710.83,299.5v114.93h-.67v-114.93h.67Zm3.67,113.6l-4,8-4-8h8Z"/><path d="m827.83,421.64v-120.47s-.67,0-.67,0v120.47s.67,0,.67,0Zm3.67-119.14l-4-8-4,8h8Z"/><path d="m643.5,355c0-1.93,1.57-3.5,3.5-3.5h112c1.93,0,3.5,1.57,3.5,3.5v14c0,1.93-1.57,3.5-3.5,3.5h-112c-1.93,0-3.5-1.57-3.5-3.5v-14Z" fill="#4472c4" fill-rule="evenodd" stroke="#2f528f" stroke-miterlimit="8" stroke-width="1.33"/><text transform="translate(648.81 365)" fill="#fff" font-family="ArialMT, Arial" font-size="12.5" isolation="isolate" letter-spacing="0em"><tspan x="0" y="0">Obtener formulario</tspan></text><path d="m780.5,352.67c0-2.3,1.87-4.17,4.17-4.17h88.67c2.3,0,4.17,1.87,4.17,4.17v16.67c0,2.3-1.86,4.17-4.17,4.17h-88.67c-2.3,0-4.17-1.86-4.17-4.17v-16.67Z" fill="#4472c4" fill-rule="evenodd" stroke="#2f528f" stroke-miterlimit="8" stroke-width="1.33"/><text transform="translate(782.82 364)" fill="#fff" font-family="ArialMT, Arial" font-size="12.5" isolation="isolate" letter-spacing="0em"><tspan x="0" y="0">Enviar formulario</tspan></text><path d="m287.5,127.83c0-18.41,14.92-33.33,33.33-33.33h164.33c18.41,0,33.33,14.92,33.33,33.33v133.33c0,18.41-14.92,33.33-33.33,33.33h-164.33c-18.41,0-33.33-14.92-33.33-33.33V127.83Z" fill="url(#uuid-c57d2189-991f-4029-aebb-2619657a54ba)" fill-rule="evenodd" stroke="#ffc000" stroke-miterlimit="8" stroke-width=".67"/><g isolation="isolate"><path d="m329.25,121v-13.6h1.8v13.6h-1.8Z"/><path d="m334.22,121v-13.6h4.69c1.06,0,1.86.07,2.42.19.78.18,1.44.5,1.99.97.72.61,1.25,1.38,1.61,2.32.36.94.53,2.02.53,3.23,0,1.03-.12,1.95-.36,2.75-.24.8-.55,1.46-.93,1.98-.38.52-.79.93-1.24,1.23-.45.3-.99.53-1.62.68-.63.16-1.36.23-2.19.23h-4.91Zm1.8-1.61h2.9c.9,0,1.6-.08,2.11-.25.51-.17.92-.4,1.22-.71.43-.43.76-1,1-1.72.24-.72.36-1.59.36-2.62,0-1.42-.23-2.52-.7-3.28-.47-.76-1.03-1.28-1.7-1.54-.48-.19-1.26-.28-2.33-.28h-2.86v10.39Z"/><path d="m347.98,121v-13.6h9.83v1.6h-8.03v4.17h7.52v1.6h-7.52v4.63h8.35v1.61h-10.15Z"/><path d="m372.07,121v-1.24c-.62.98-1.54,1.47-2.76,1.47-.79,0-1.51-.22-2.17-.65-.66-.43-1.17-1.04-1.53-1.81-.36-.78-.54-1.67-.54-2.68s.16-1.88.49-2.68c.33-.8.82-1.41,1.48-1.84.66-.43,1.39-.64,2.2-.64.59,0,1.12.12,1.59.38.46.25.84.58,1.13.98v-4.88h1.66v13.6h-1.55Zm-5.28-4.92c0,1.26.27,2.21.8,2.83.53.62,1.16.94,1.88.94s1.35-.3,1.86-.9c.51-.6.77-1.51.77-2.73,0-1.35-.26-2.34-.78-2.97s-1.16-.95-1.92-.95-1.36.3-1.86.91c-.5.61-.75,1.56-.75,2.87Z"/><path d="m382.99,117.83l1.73.21c-.27,1.01-.78,1.79-1.51,2.35-.74.56-1.68.83-2.82.83-1.44,0-2.58-.44-3.43-1.33-.84-.89-1.27-2.13-1.27-3.73s.43-2.94,1.28-3.86,1.96-1.37,3.32-1.37,2.39.45,3.23,1.34c.83.9,1.25,2.16,1.25,3.79,0,.1,0,.25,0,.45h-7.35c.06,1.08.37,1.91.92,2.49.55.58,1.24.86,2.06.86.61,0,1.13-.16,1.57-.48.43-.32.78-.83,1.03-1.54Zm-5.48-2.7h5.5c-.07-.83-.28-1.45-.63-1.86-.53-.64-1.22-.96-2.07-.96-.77,0-1.41.26-1.93.77-.52.51-.81,1.2-.87,2.06Z"/><path d="m398.52,117.39l1.64.21c-.18,1.13-.64,2.02-1.38,2.66-.74.64-1.65.96-2.72.96-1.35,0-2.43-.44-3.25-1.32-.82-.88-1.23-2.14-1.23-3.79,0-1.06.18-2,.53-2.79s.89-1.4,1.61-1.79c.72-.4,1.5-.6,2.35-.6,1.07,0,1.94.27,2.63.81.68.54,1.12,1.31,1.31,2.31l-1.62.25c-.15-.66-.43-1.16-.82-1.49-.39-.33-.87-.5-1.42-.5-.84,0-1.52.3-2.05.9-.53.6-.79,1.56-.79,2.86s.25,2.29.76,2.88c.51.6,1.17.9,1.99.9.66,0,1.2-.2,1.64-.6.44-.4.72-1.02.83-1.86Z"/><path d="m400.97,116.07c0-1.83.51-3.18,1.52-4.05.85-.73,1.88-1.09,3.1-1.09,1.35,0,2.46.44,3.32,1.33.86.89,1.29,2.11,1.29,3.68,0,1.27-.19,2.27-.57,2.99-.38.73-.93,1.29-1.66,1.69-.73.4-1.52.6-2.38.6-1.38,0-2.49-.44-3.34-1.33-.85-.88-1.28-2.16-1.28-3.82Zm1.72,0c0,1.26.27,2.21.83,2.83.55.63,1.24.94,2.08.94s1.52-.32,2.07-.95c.55-.63.83-1.59.83-2.89,0-1.22-.28-2.14-.83-2.77-.55-.63-1.24-.94-2.06-.94s-1.53.31-2.08.94c-.55.62-.83,1.57-.83,2.83Zm1.98-6.15l1.23-2.6h2.19l-2.04,2.6h-1.38Z"/><path d="m418.55,121v-1.24c-.62.98-1.54,1.47-2.76,1.47-.79,0-1.51-.22-2.17-.65-.66-.43-1.17-1.04-1.53-1.81-.36-.78-.54-1.67-.54-2.68s.16-1.88.49-2.68c.33-.8.82-1.41,1.48-1.84.66-.43,1.39-.64,2.2-.64.59,0,1.12.12,1.59.38.46.25.84.58,1.13.98v-4.88h1.66v13.6h-1.55Zm-5.28-4.92c0,1.26.27,2.21.8,2.83.53.62,1.16.94,1.88.94s1.35-.3,1.86-.9c.51-.6.77-1.51.77-2.73,0-1.35-.26-2.34-.78-2.97s-1.16-.95-1.92-.95-1.36.3-1.86.91c-.5.61-.75,1.56-.75,2.87Z"/><path d="m422.74,109.32v-1.92h1.67v1.92h-1.67Zm0,11.68v-9.85h1.67v9.85h-1.67Z"/><path d="m426.64,121.82l1.62.24c.07.5.26.87.57,1.09.41.31.98.46,1.7.46.77,0,1.37-.15,1.79-.46.42-.31.71-.74.85-1.3.09-.34.13-1.05.12-2.14-.73.86-1.64,1.29-2.73,1.29-1.35,0-2.4-.49-3.15-1.47s-1.11-2.15-1.11-3.52c0-.94.17-1.81.51-2.6.34-.79.83-1.41,1.48-1.84.65-.43,1.41-.65,2.28-.65,1.16,0,2.12.47,2.88,1.41v-1.19h1.54v8.52c0,1.53-.16,2.62-.47,3.26-.31.64-.81,1.15-1.48,1.52-.68.37-1.51.56-2.5.56-1.18,0-2.12-.26-2.85-.79-.72-.53-1.07-1.33-1.05-2.39Zm1.38-5.92c0,1.29.26,2.24.77,2.83.51.59,1.16.89,1.93.89s1.41-.29,1.93-.89c.52-.59.78-1.52.78-2.78s-.27-2.12-.8-2.73c-.53-.61-1.18-.92-1.93-.92s-1.37.3-1.89.91c-.52.6-.78,1.5-.78,2.69Z"/><path d="m436.89,116.07c0-1.83.51-3.18,1.52-4.05.85-.73,1.88-1.09,3.1-1.09,1.35,0,2.46.44,3.32,1.33.86.89,1.29,2.11,1.29,3.68,0,1.27-.19,2.27-.57,2.99-.38.73-.93,1.29-1.66,1.69-.73.4-1.52.6-2.38.6-1.38,0-2.49-.44-3.34-1.33-.85-.88-1.28-2.16-1.28-3.82Zm1.72,0c0,1.26.27,2.21.83,2.83.55.63,1.24.94,2.08.94s1.52-.32,2.07-.95c.55-.63.83-1.59.83-2.89,0-1.22-.28-2.14-.83-2.77-.55-.63-1.24-.94-2.06-.94s-1.53.31-2.08.94c-.55.62-.83,1.57-.83,2.83Z"/><path d="m459.75,121v-1.24c-.62.98-1.54,1.47-2.76,1.47-.79,0-1.51-.22-2.17-.65-.66-.43-1.17-1.04-1.53-1.81-.36-.78-.54-1.67-.54-2.68s.16-1.88.49-2.68c.33-.8.82-1.41,1.48-1.84.66-.43,1.39-.64,2.2-.64.59,0,1.12.12,1.59.38.46.25.84.58,1.13.98v-4.88h1.66v13.6h-1.55Zm-5.28-4.92c0,1.26.27,2.21.8,2.83.53.62,1.16.94,1.88.94s1.35-.3,1.86-.9c.51-.6.77-1.51.77-2.73,0-1.35-.26-2.34-.78-2.97s-1.16-.95-1.92-.95-1.36.3-1.86.91c-.5.61-.75,1.56-.75,2.87Z"/><path d="m470.67,117.83l1.73.21c-.27,1.01-.78,1.79-1.51,2.35-.74.56-1.68.83-2.82.83-1.44,0-2.58-.44-3.43-1.33-.84-.89-1.27-2.13-1.27-3.73s.43-2.94,1.28-3.86,1.96-1.37,3.32-1.37,2.39.45,3.23,1.34c.83.9,1.25,2.16,1.25,3.79,0,.1,0,.25,0,.45h-7.35c.06,1.08.37,1.91.92,2.49.55.58,1.24.86,2.06.86.61,0,1.13-.16,1.57-.48.43-.32.78-.83,1.03-1.54Zm-5.48-2.7h5.5c-.07-.83-.28-1.45-.63-1.86-.53-.64-1.22-.96-2.07-.96-.77,0-1.41.26-1.93.77-.52.51-.81,1.2-.87,2.06Z"/><path d="m353.07,143.8l-5.27-13.6h1.95l3.53,9.88c.28.79.52,1.53.71,2.23.21-.74.45-1.48.73-2.23l3.67-9.88h1.84l-5.33,13.6h-1.85Z"/><path d="m361.31,132.12v-1.92h1.67v1.92h-1.67Zm0,11.68v-9.85h1.67v9.85h-1.67Z"/><path d="m364.86,140.86l1.65-.26c.09.66.35,1.17.77,1.52.42.35,1.02.53,1.78.53s1.34-.16,1.71-.47c.37-.31.56-.68.56-1.1,0-.38-.16-.67-.49-.89-.23-.15-.8-.34-1.71-.57-1.22-.31-2.07-.58-2.55-.8-.47-.23-.83-.54-1.08-.94-.24-.4-.37-.84-.37-1.32,0-.44.1-.85.3-1.22.2-.37.47-.69.82-.93.26-.19.61-.35,1.06-.49.45-.13.93-.2,1.44-.2.77,0,1.45.11,2.04.33.58.22,1.02.52,1.29.9.28.38.47.89.58,1.53l-1.63.22c-.07-.51-.29-.9-.65-1.19-.36-.28-.86-.43-1.51-.43-.77,0-1.31.13-1.64.38-.33.25-.49.55-.49.89,0,.22.07.41.2.58.14.18.35.33.64.45.17.06.66.2,1.48.43,1.18.32,2.01.57,2.47.77.47.2.83.49,1.1.88.27.38.4.86.4,1.43s-.16,1.08-.49,1.57c-.33.49-.79.87-1.41,1.14-.61.27-1.31.4-2.08.4-1.28,0-2.26-.27-2.93-.8-.67-.53-1.1-1.32-1.28-2.37Z"/><path d="m381.48,143.8v-1.45c-.77,1.11-1.81,1.67-3.13,1.67-.58,0-1.12-.11-1.63-.33-.5-.22-.88-.5-1.12-.84-.24-.34-.42-.75-.51-1.24-.07-.33-.1-.85-.1-1.56v-6.1h1.67v5.46c0,.87.03,1.46.1,1.76.1.44.33.78.67,1.03.34.25.76.38,1.26.38s.97-.13,1.41-.39c.44-.26.75-.61.93-1.05.18-.44.27-1.08.27-1.93v-5.28h1.67v9.85h-1.49Z"/><path d="m392.02,142.58c-.62.53-1.21.9-1.79,1.11-.57.22-1.19.32-1.84.32-1.08,0-1.91-.26-2.5-.79-.58-.53-.87-1.21-.87-2.03,0-.48.11-.92.33-1.32.22-.4.51-.72.86-.96.36-.24.76-.42,1.2-.55.33-.09.82-.17,1.48-.25,1.35-.16,2.34-.35,2.98-.58,0-.23,0-.37,0-.44,0-.68-.16-1.16-.47-1.44-.43-.38-1.06-.57-1.9-.57-.79,0-1.37.14-1.74.41-.37.28-.65.76-.83,1.46l-1.63-.22c.15-.7.39-1.26.73-1.69.34-.43.83-.76,1.48-.99.64-.23,1.39-.35,2.24-.35s1.52.1,2.05.3c.53.2.91.45,1.16.75.25.3.42.68.52,1.14.06.28.08.8.08,1.54v2.23c0,1.55.04,2.54.11,2.95.07.41.21.81.42,1.18h-1.74c-.17-.35-.28-.75-.33-1.21Zm-.14-3.73c-.61.25-1.52.46-2.73.63-.69.1-1.17.21-1.46.33-.28.12-.5.31-.66.54-.15.24-.23.5-.23.79,0,.45.17.82.51,1.11.34.3.83.45,1.48.45s1.22-.14,1.72-.42c.5-.28.87-.67,1.1-1.15.18-.38.27-.93.27-1.67v-.61Z"/><path d="m396.12,143.8v-13.6h1.67v13.6h-1.67Z"/><path d="m405.26,139.43l1.7-.15c.08.68.27,1.24.56,1.67.29.44.75.79,1.37,1.06.62.27,1.31.4,2.09.4.69,0,1.29-.1,1.82-.31.53-.2.92-.48,1.17-.84.26-.36.38-.74.38-1.16s-.12-.8-.37-1.12c-.25-.32-.66-.59-1.22-.8-.37-.14-1.17-.36-2.42-.66-1.25-.3-2.12-.58-2.63-.85-.65-.34-1.13-.76-1.45-1.27-.32-.5-.48-1.07-.48-1.69,0-.69.19-1.33.58-1.93.39-.6.96-1.05,1.71-1.36.75-.31,1.58-.46,2.5-.46,1.01,0,1.9.16,2.67.49.77.33,1.36.8,1.78,1.43.41.63.64,1.35.67,2.14l-1.73.13c-.09-.86-.41-1.51-.94-1.95-.53-.44-1.33-.66-2.37-.66s-1.88.2-2.38.6c-.5.4-.75.88-.75,1.44,0,.49.18.89.53,1.21.35.32,1.25.64,2.71.97,1.46.33,2.47.62,3.01.87.79.37,1.38.83,1.75,1.39.38.56.57,1.21.57,1.93s-.21,1.41-.62,2.05c-.41.64-1.01,1.14-1.79,1.49-.78.36-1.65.53-2.62.53-1.23,0-2.26-.18-3.09-.54-.83-.36-1.48-.9-1.96-1.62-.47-.72-.72-1.54-.75-2.44Z"/><path d="m421.98,142.31l.24,1.48c-.47.1-.89.15-1.26.15-.61,0-1.08-.1-1.41-.29-.33-.19-.57-.44-.71-.76-.14-.31-.2-.97-.2-1.97v-5.67h-1.22v-1.3h1.22v-2.44l1.66-1v3.44h1.68v1.3h-1.68v5.76c0,.48.03.78.09.92.06.14.15.24.29.33.13.08.32.12.57.12.19,0,.43-.02.73-.07Z"/><path d="m430.07,143.8v-1.45c-.77,1.11-1.81,1.67-3.13,1.67-.58,0-1.12-.11-1.63-.33-.5-.22-.88-.5-1.12-.84-.24-.34-.42-.75-.51-1.24-.07-.33-.1-.85-.1-1.56v-6.1h1.67v5.46c0,.87.03,1.46.1,1.76.1.44.33.78.67,1.03.34.25.76.38,1.26.38s.97-.13,1.41-.39c.44-.26.75-.61.93-1.05.18-.44.27-1.08.27-1.93v-5.28h1.67v9.85h-1.49Z"/><path d="m440.57,143.8v-1.24c-.62.98-1.54,1.47-2.76,1.47-.79,0-1.51-.22-2.17-.65-.66-.43-1.17-1.04-1.53-1.81-.36-.78-.54-1.67-.54-2.68s.16-1.88.49-2.68c.33-.8.82-1.41,1.48-1.84.66-.43,1.39-.64,2.2-.64.59,0,1.12.12,1.59.38.46.25.84.58,1.13.98v-4.88h1.66v13.6h-1.55Zm-5.28-4.92c0,1.26.27,2.21.8,2.83.53.62,1.16.94,1.88.94s1.35-.3,1.86-.9c.51-.6.77-1.51.77-2.73,0-1.35-.26-2.34-.78-2.97s-1.16-.95-1.92-.95-1.36.3-1.86.91c-.5.61-.75,1.56-.75,2.87Z"/><path d="m444.75,132.12v-1.92h1.67v1.92h-1.67Zm0,11.68v-9.85h1.67v9.85h-1.67Z"/><path d="m448.34,138.87c0-1.83.51-3.18,1.52-4.05.85-.73,1.88-1.09,3.1-1.09,1.35,0,2.46.44,3.32,1.33.86.89,1.29,2.11,1.29,3.68,0,1.27-.19,2.27-.57,2.99-.38.73-.93,1.29-1.66,1.69-.73.4-1.52.6-2.38.6-1.38,0-2.49-.44-3.34-1.33-.85-.88-1.28-2.16-1.28-3.82Zm1.72,0c0,1.26.27,2.21.83,2.83.55.63,1.24.94,2.08.94s1.52-.32,2.07-.95c.55-.63.83-1.59.83-2.89,0-1.22-.28-2.14-.83-2.77-.55-.63-1.24-.94-2.06-.94s-1.53.31-2.08.94c-.55.62-.83,1.57-.83,2.83Z"/></g><path d="m378.5,172.33c0-10.95,8.88-19.83,19.83-19.83h88.33c10.95,0,19.83,8.88,19.83,19.83v79.33c0,10.95-8.88,19.83-19.83,19.83h-88.33c-10.95,0-19.83-8.88-19.83-19.83v-79.33Z" fill="#ed7d31" fill-rule="evenodd" stroke="#ffc000" stroke-miterlimit="8" stroke-width=".67"/><g isolation="isolate"><g isolation="isolate"><path d="m413.82,178v-9.31h3.02c1.14,0,1.89.05,2.23.14.53.14.98.44,1.34.91s.54,1.07.54,1.81c0,.57-.1,1.05-.31,1.44s-.47.7-.79.92c-.32.22-.64.37-.97.44-.45.09-1.1.13-1.95.13h-1.23v3.51h-1.88Zm1.88-7.73v2.64h1.03c.74,0,1.24-.05,1.49-.15.25-.1.45-.25.59-.46.14-.21.21-.45.21-.72,0-.34-.1-.62-.3-.84-.2-.22-.45-.36-.76-.41-.22-.04-.67-.06-1.35-.06h-.91Z"/><path d="m424.19,178h-1.78v-6.74h1.66v.96c.28-.45.54-.75.76-.89.23-.14.48-.22.77-.22.41,0,.8.11,1.17.34l-.55,1.55c-.3-.19-.58-.29-.84-.29s-.46.07-.63.21-.31.39-.41.75c-.1.36-.15,1.11-.15,2.26v2.08Z"/><path d="m427.13,174.53c0-.59.15-1.17.44-1.72.29-.55.71-.98,1.24-1.27.54-.29,1.13-.44,1.79-.44,1.02,0,1.86.33,2.51.99s.98,1.5.98,2.51-.33,1.87-.99,2.54c-.66.67-1.49,1.01-2.48,1.01-.62,0-1.21-.14-1.77-.42-.56-.28-.99-.69-1.28-1.23-.29-.54-.44-1.2-.44-1.97Zm1.83.09c0,.67.16,1.18.48,1.54s.71.53,1.17.53.86-.18,1.17-.53c.32-.36.47-.87.47-1.55s-.16-1.17-.47-1.52c-.31-.36-.71-.53-1.17-.53s-.86.18-1.17.53-.48.87-.48,1.54Z"/><path d="m434.64,171.26h1.9l1.61,4.79,1.57-4.79h1.85l-2.38,6.49-.43,1.17c-.16.39-.31.69-.45.9-.14.21-.3.38-.49.5-.18.13-.41.23-.68.3-.27.07-.57.11-.91.11s-.68-.04-1.01-.11l-.16-1.4c.28.05.53.08.76.08.41,0,.72-.12.92-.37s.35-.55.46-.93l-2.56-6.76Z"/><path d="m446.62,175.85l1.78.3c-.23.65-.59,1.15-1.08,1.49-.49.34-1.11.51-1.85.51-1.17,0-2.04-.38-2.6-1.15-.44-.61-.67-1.39-.67-2.32,0-1.12.29-1.99.88-2.62s1.32-.95,2.22-.95c1,0,1.79.33,2.37.99s.86,1.68.83,3.04h-4.47c.01.53.16.94.43,1.23s.62.44,1.03.44c.28,0,.51-.08.7-.23s.33-.4.43-.74Zm.1-1.8c-.01-.52-.15-.91-.4-1.18s-.56-.4-.93-.4c-.39,0-.71.14-.96.43s-.38.67-.37,1.16h2.67Z"/><path d="m455.82,173.25l-1.76.32c-.06-.35-.19-.62-.4-.79-.21-.18-.48-.27-.82-.27-.44,0-.8.15-1.06.46-.26.31-.4.82-.4,1.54,0,.8.13,1.36.4,1.69.27.33.63.5,1.08.5.34,0,.62-.1.83-.29s.37-.52.46-.99l1.75.3c-.18.8-.53,1.41-1.05,1.82-.52.41-1.21.62-2.08.62-.99,0-1.77-.31-2.36-.93-.59-.62-.88-1.48-.88-2.58s.29-1.98.88-2.6,1.38-.93,2.39-.93c.82,0,1.47.18,1.96.53.48.35.83.89,1.04,1.62Z"/><path d="m460.26,171.26v1.42h-1.22v2.72c0,.55.01.87.04.96.02.09.08.17.16.22.08.06.18.09.3.09.17,0,.4-.06.72-.17l.15,1.38c-.41.18-.88.27-1.41.27-.32,0-.61-.05-.87-.16-.26-.11-.45-.25-.57-.42-.12-.17-.2-.4-.25-.69-.04-.21-.06-.63-.06-1.26v-2.94h-.82v-1.42h.82v-1.34l1.79-1.04v2.38h1.22Z"/><path d="m461.09,174.53c0-.59.15-1.17.44-1.72.29-.55.71-.98,1.24-1.27.54-.29,1.13-.44,1.79-.44,1.02,0,1.86.33,2.51.99s.98,1.5.98,2.51-.33,1.87-.99,2.54c-.66.67-1.49,1.01-2.48,1.01-.62,0-1.21-.14-1.77-.42-.56-.28-.99-.69-1.28-1.23-.29-.54-.44-1.2-.44-1.97Zm1.83.09c0,.67.16,1.18.48,1.54s.71.53,1.17.53.86-.18,1.17-.53c.32-.36.47-.87.47-1.55s-.16-1.17-.47-1.52c-.31-.36-.71-.53-1.17-.53s-.86.18-1.17.53-.48.87-.48,1.54Z"/><path d="m413.35,188.92l-1.62-.29c.18-.65.5-1.13.94-1.45s1.1-.47,1.98-.47c.8,0,1.39.09,1.78.28s.66.43.82.72c.16.29.24.82.24,1.6l-.02,2.08c0,.59.03,1.03.09,1.31.06.28.16.58.32.9h-1.76c-.05-.12-.1-.29-.17-.53-.03-.11-.05-.17-.06-.21-.3.3-.63.52-.98.67-.35.15-.72.22-1.11.22-.69,0-1.24-.19-1.64-.56-.4-.38-.6-.85-.6-1.43,0-.38.09-.72.27-1.02.18-.3.44-.53.76-.69.33-.16.8-.3,1.42-.42.83-.16,1.41-.3,1.73-.44v-.18c0-.34-.08-.59-.25-.73-.17-.15-.49-.22-.96-.22-.32,0-.56.06-.74.19s-.32.34-.43.66Zm2.39,1.45c-.23.08-.59.17-1.09.27-.5.11-.82.21-.97.31-.23.17-.35.37-.35.63s.09.47.28.65c.19.18.42.27.71.27.32,0,.63-.11.92-.32.22-.16.36-.36.43-.59.05-.15.07-.44.07-.87v-.36Z"/><path d="m420.95,193.6h-1.78v-6.74h1.66v.96c.28-.45.54-.75.76-.89.23-.14.48-.22.77-.22.41,0,.8.11,1.17.34l-.55,1.55c-.3-.19-.58-.29-.84-.29s-.46.07-.63.21-.31.39-.41.75c-.1.36-.15,1.11-.15,2.26v2.08Z"/><path d="m428.71,196.16v-3.39c-.23.3-.52.54-.87.71s-.72.26-1.12.26c-.77,0-1.4-.29-1.89-.86-.58-.67-.88-1.58-.88-2.74,0-1.08.27-1.93.82-2.54.55-.61,1.23-.91,2.04-.91.45,0,.84.09,1.17.29.33.19.62.48.87.86v-1h1.64v9.31h-1.78Zm.06-6.02c0-.69-.14-1.2-.42-1.54-.28-.34-.63-.5-1.06-.5s-.79.17-1.08.51c-.29.34-.43.89-.43,1.63s.14,1.27.42,1.6.62.49,1.03.49.77-.18,1.08-.55c.31-.37.46-.92.46-1.64Z"/><path d="m436.68,193.6v-1.01c-.25.36-.57.64-.97.85-.4.21-.82.31-1.27.31s-.86-.1-1.22-.3c-.36-.2-.62-.48-.78-.84-.16-.36-.24-.86-.24-1.49v-4.27h1.78v3.1c0,.95.03,1.53.1,1.74.07.21.19.38.36.51s.39.19.66.19c.3,0,.58-.08.82-.25s.41-.37.5-.62c.09-.25.13-.85.13-1.82v-2.84h1.78v6.74h-1.66Z"/><path d="m444.09,191.45l1.78.3c-.23.65-.59,1.15-1.08,1.49-.49.34-1.11.51-1.85.51-1.17,0-2.04-.38-2.6-1.15-.44-.61-.67-1.39-.67-2.32,0-1.12.29-1.99.88-2.62s1.32-.95,2.22-.95c1,0,1.79.33,2.37.99s.86,1.68.83,3.04h-4.47c.01.53.16.94.43,1.23s.62.44,1.03.44c.28,0,.51-.08.7-.23s.33-.4.43-.74Zm.1-1.8c-.01-.52-.15-.91-.4-1.18s-.56-.4-.93-.4c-.39,0-.71.14-.96.43s-.38.67-.37,1.16h2.67Z"/><path d="m450.51,186.86v1.42h-1.22v2.72c0,.55.01.87.04.96.02.09.08.17.16.22.08.06.18.09.3.09.17,0,.4-.06.72-.17l.15,1.38c-.41.18-.88.27-1.41.27-.32,0-.61-.05-.87-.16-.26-.11-.45-.25-.57-.42-.12-.17-.2-.4-.25-.69-.04-.21-.06-.63-.06-1.26v-2.94h-.82v-1.42h.82v-1.34l1.79-1.04v2.38h1.22Z"/><path d="m451.75,185.94v-1.65h1.78v1.65h-1.78Zm0,7.66v-6.74h1.78v6.74h-1.78Z"/><path d="m455.31,186.86h1.66v.99c.22-.34.51-.61.88-.83s.78-.32,1.23-.32c.78,0,1.45.31,1.99.92.55.61.82,1.47.82,2.56s-.27,2-.83,2.62-1.22.94-2,.94c-.37,0-.71-.07-1.01-.22-.3-.15-.62-.4-.96-.76v3.4h-1.78v-9.31Zm1.76,3.26c0,.76.15,1.32.45,1.68.3.36.67.54,1.1.54s.76-.17,1.03-.5.41-.88.41-1.63c0-.71-.14-1.23-.43-1.57-.28-.34-.63-.51-1.05-.51s-.8.17-1.09.5c-.29.34-.43.83-.43,1.5Z"/><path d="m462.89,190.13c0-.59.15-1.17.44-1.72.29-.55.71-.98,1.24-1.27.54-.29,1.13-.44,1.79-.44,1.02,0,1.86.33,2.51.99s.98,1.5.98,2.51-.33,1.87-.99,2.54c-.66.67-1.49,1.01-2.48,1.01-.62,0-1.21-.14-1.77-.42-.56-.28-.99-.69-1.28-1.23-.29-.54-.44-1.2-.44-1.97Zm1.83.09c0,.67.16,1.18.48,1.54s.71.53,1.17.53.86-.18,1.17-.53c.32-.36.47-.87.47-1.55s-.16-1.17-.47-1.52c-.31-.36-.71-.53-1.17-.53s-.86.18-1.17.53-.48.87-.48,1.54Z"/></g></g><path d="m296.5,193.67c0-5.06,4.1-9.17,9.17-9.17h57.67c5.06,0,9.17,4.1,9.17,9.17v36.67c0,5.06-4.1,9.17-9.17,9.17h-57.67c-5.06,0-9.17-4.1-9.17-9.17v-36.67Z" fill="#ed7d31" fill-rule="evenodd" stroke="#ffc000" stroke-miterlimit="8" stroke-width=".67"/><g isolation="isolate"><text transform="translate(312.17 203.75)" font-family="ArialMT, Arial" font-size="11" isolation="isolate" letter-spacing="-.02em"><tspan x="0" y="0">Plugin de </tspan><tspan x="-12" y="12">formularios sin </tspan><tspan x="-6.9" y="24" xml:space="preserve">encabezado  </tspan></text></g><path d="m519.5,208.17h115.98v.67h-115.98v-.67Zm114.65-3.67l8,4-8,4v-8Z"/><path d="m531.5,197.83c0-2.94,2.39-5.33,5.33-5.33h87.33c2.95,0,5.33,2.39,5.33,5.33v21.33c0,2.94-2.39,5.33-5.33,5.33h-87.33c-2.95,0-5.33-2.39-5.33-5.33v-21.33Z" fill="#4472c4" fill-rule="evenodd" stroke="#2f528f" stroke-miterlimit="8" stroke-width="1.33"/><g isolation="isolate"><g isolation="isolate"><path d="m564.66,200.74l1.23.31c-.26,1.01-.72,1.78-1.39,2.31-.67.53-1.49.8-2.46.8s-1.82-.2-2.45-.61c-.63-.41-1.11-1-1.43-1.77-.33-.77-.49-1.61-.49-2.49,0-.97.19-1.81.56-2.54.37-.72.9-1.27,1.58-1.64.68-.38,1.44-.56,2.26-.56.93,0,1.71.24,2.35.71.63.47,1.08,1.14,1.33,2l-1.21.29c-.22-.68-.53-1.17-.94-1.48s-.93-.46-1.55-.46c-.72,0-1.31.17-1.79.51-.48.34-.82.8-1.01,1.38-.19.58-.29,1.17-.29,1.79,0,.79.12,1.48.35,2.07.23.59.59,1.03,1.08,1.32s1.01.44,1.58.44c.69,0,1.27-.2,1.75-.6.48-.4.8-.99.97-1.77Z" fill="#fff"/><path d="m567.25,204v-6.74h1.03v1.02c.26-.48.5-.79.73-.95.22-.15.47-.23.73-.23.39,0,.78.12,1.17.37l-.39,1.06c-.28-.17-.56-.25-.84-.25-.25,0-.47.08-.67.23s-.34.36-.43.62c-.13.41-.19.85-.19,1.33v3.53h-1.14Z" fill="#fff"/><path d="m576.21,201.83l1.18.15c-.19.69-.53,1.23-1.03,1.61s-1.15.57-1.93.57c-.99,0-1.77-.3-2.35-.91-.58-.61-.87-1.46-.87-2.55s.29-2.01.88-2.64,1.34-.94,2.27-.94,1.64.31,2.21.92c.57.61.86,1.48.86,2.59,0,.07,0,.17,0,.3h-5.03c.04.74.25,1.31.63,1.7.38.39.85.59,1.41.59.42,0,.78-.11,1.07-.33s.53-.57.7-1.05Zm-3.75-1.85h3.76c-.05-.57-.19-.99-.43-1.28-.36-.44-.84-.66-1.42-.66-.52,0-.97.18-1.32.53-.36.35-.56.82-.59,1.41Z" fill="#fff"/><path d="m583.22,203.17c-.42.36-.83.61-1.22.76-.39.15-.81.22-1.26.22-.74,0-1.31-.18-1.71-.54-.4-.36-.6-.82-.6-1.39,0-.33.08-.63.23-.9.15-.27.35-.49.59-.66.24-.17.52-.29.82-.37.22-.06.56-.12,1.02-.17.92-.11,1.6-.24,2.04-.39,0-.16,0-.26,0-.3,0-.47-.11-.79-.32-.98-.29-.26-.73-.39-1.3-.39-.54,0-.93.09-1.19.28-.26.19-.45.52-.57,1l-1.12-.15c.1-.48.27-.86.5-1.16s.57-.52,1.01-.68c.44-.16.95-.24,1.53-.24s1.04.07,1.4.2.62.31.79.51.29.46.36.78c.04.2.06.55.06,1.05v1.52c0,1.06.02,1.73.07,2.01.05.28.15.55.29.81h-1.19c-.12-.24-.19-.51-.23-.83Zm-.1-2.55c-.41.17-1.04.31-1.87.43-.47.07-.8.14-1,.23-.19.08-.34.21-.45.37s-.16.34-.16.54c0,.3.12.56.35.76.23.2.57.3,1.01.3s.83-.1,1.17-.29.59-.46.76-.79c.12-.26.18-.64.18-1.14v-.42Z" fill="#fff"/><path d="m586.04,204v-6.74h1.03v1.02c.26-.48.5-.79.73-.95.22-.15.47-.23.73-.23.39,0,.78.12,1.17.37l-.39,1.06c-.28-.17-.56-.25-.84-.25-.25,0-.47.08-.67.23s-.34.36-.43.62c-.13.41-.19.85-.19,1.33v3.53h-1.14Z" fill="#fff"/><path d="m598.61,201.83l1.18.15c-.19.69-.53,1.23-1.03,1.61s-1.15.57-1.93.57c-.99,0-1.77-.3-2.35-.91-.58-.61-.87-1.46-.87-2.55s.29-2.01.88-2.64,1.34-.94,2.27-.94,1.64.31,2.21.92c.57.61.86,1.48.86,2.59,0,.07,0,.17,0,.3h-5.03c.04.74.25,1.31.63,1.7.38.39.85.59,1.41.59.42,0,.78-.11,1.07-.33s.53-.57.7-1.05Zm-3.75-1.85h3.76c-.05-.57-.19-.99-.43-1.28-.36-.44-.84-.66-1.42-.66-.52,0-.97.18-1.32.53-.36.35-.56.82-.59,1.41Z" fill="#fff"/><path d="m543.79,211.61v-1.31h1.14v1.31h-1.14Zm0,7.99v-6.74h1.14v6.74h-1.14Z" fill="#fff"/><path d="m546.68,219.6v-6.74h1.02v.95c.21-.33.49-.6.84-.8s.75-.3,1.2-.3c.5,0,.91.1,1.23.31.32.21.54.5.68.87.53-.79,1.23-1.18,2.08-1.18.67,0,1.18.19,1.54.56s.54.94.54,1.71v4.63h-1.14v-4.25c0-.46-.04-.79-.11-.99-.07-.2-.21-.36-.4-.49-.19-.12-.42-.18-.69-.18-.47,0-.87.16-1.18.47s-.47.82-.47,1.51v3.92h-1.14v-4.38c0-.51-.09-.89-.28-1.14s-.49-.38-.91-.38c-.32,0-.62.08-.89.25-.27.17-.47.42-.59.74-.12.33-.18.79-.18,1.41v3.5h-1.14Z" fill="#fff"/><path d="m557.51,222.18v-9.33h1.04v.88c.25-.34.52-.6.83-.77.31-.17.68-.26,1.12-.26.58,0,1.08.15,1.52.44s.77.71,1,1.25c.22.54.34,1.13.34,1.77,0,.69-.12,1.31-.37,1.86-.25.55-.61.98-1.08,1.27-.47.29-.97.44-1.49.44-.38,0-.72-.08-1.03-.24-.3-.16-.55-.36-.75-.61v3.28h-1.14Zm1.03-5.92c0,.87.18,1.51.53,1.92s.78.62,1.28.62.94-.21,1.3-.64c.36-.43.54-1.09.54-2s-.18-1.5-.53-1.93c-.35-.43-.78-.64-1.27-.64s-.92.23-1.29.68c-.37.46-.56,1.12-.56,1.98Z" fill="#fff"/><path d="m564.71,219.6v-9.31h1.14v9.31h-1.14Z" fill="#fff"/><path d="m572.24,217.43l1.18.15c-.19.69-.53,1.23-1.03,1.61s-1.15.57-1.93.57c-.99,0-1.77-.3-2.35-.91-.58-.61-.87-1.46-.87-2.55s.29-2.01.88-2.64,1.34-.94,2.27-.94,1.64.31,2.21.92c.57.61.86,1.48.86,2.59,0,.07,0,.17,0,.3h-5.03c.04.74.25,1.31.63,1.7.38.39.85.59,1.41.59.42,0,.78-.11,1.07-.33s.53-.57.7-1.05Zm-3.75-1.85h3.76c-.05-.57-.19-.99-.43-1.28-.36-.44-.84-.66-1.42-.66-.52,0-.97.18-1.32.53-.36.35-.56.82-.59,1.41Z" fill="#fff"/><path d="m574.85,219.6v-6.74h1.02v.95c.21-.33.49-.6.84-.8s.75-.3,1.2-.3c.5,0,.91.1,1.23.31.32.21.54.5.68.87.53-.79,1.23-1.18,2.08-1.18.67,0,1.18.19,1.54.56s.54.94.54,1.71v4.63h-1.14v-4.25c0-.46-.04-.79-.11-.99-.07-.2-.21-.36-.4-.49-.19-.12-.42-.18-.69-.18-.47,0-.87.16-1.18.47s-.47.82-.47,1.51v3.92h-1.14v-4.38c0-.51-.09-.89-.28-1.14s-.49-.38-.91-.38c-.32,0-.62.08-.89.25-.27.17-.47.42-.59.74-.12.33-.18.79-.18,1.41v3.5h-1.14Z" fill="#fff"/><path d="m590.3,217.43l1.18.15c-.19.69-.53,1.23-1.03,1.61s-1.15.57-1.93.57c-.99,0-1.77-.3-2.35-.91-.58-.61-.87-1.46-.87-2.55s.29-2.01.88-2.64,1.34-.94,2.27-.94,1.64.31,2.21.92c.57.61.86,1.48.86,2.59,0,.07,0,.17,0,.3h-5.03c.04.74.25,1.31.63,1.7.38.39.85.59,1.41.59.42,0,.78-.11,1.07-.33s.53-.57.7-1.05Zm-3.75-1.85h3.76c-.05-.57-.19-.99-.43-1.28-.36-.44-.84-.66-1.42-.66-.52,0-.97.18-1.32.53-.36.35-.56.82-.59,1.41Z" fill="#fff"/><path d="m592.91,219.6v-6.74h1.03v.96c.5-.74,1.21-1.11,2.15-1.11.41,0,.78.07,1.12.22.34.15.6.34.76.58.17.24.29.52.36.84.04.21.06.58.06,1.11v4.14h-1.14v-4.1c0-.47-.04-.81-.13-1.04s-.25-.42-.47-.55c-.23-.14-.49-.21-.8-.21-.49,0-.91.15-1.26.46-.35.31-.53.89-.53,1.76v3.68h-1.14Z" fill="#fff"/><path d="m602.64,218.58l.17,1.01c-.32.07-.61.1-.86.1-.41,0-.74-.07-.96-.2-.23-.13-.39-.3-.48-.52s-.14-.66-.14-1.35v-3.88h-.84v-.89h.84v-1.67l1.14-.69v2.35h1.15v.89h-1.15v3.94c0,.33.02.54.06.63.04.09.11.17.2.22.09.06.22.08.39.08.13,0,.29-.01.5-.04Z" fill="#fff"/><path d="m608.15,218.77c-.42.36-.83.61-1.22.76-.39.15-.81.22-1.26.22-.74,0-1.31-.18-1.71-.54-.4-.36-.6-.82-.6-1.39,0-.33.08-.63.23-.9.15-.27.35-.49.59-.66.24-.17.52-.29.82-.37.22-.06.56-.12,1.02-.17.92-.11,1.6-.24,2.04-.39,0-.16,0-.26,0-.3,0-.47-.11-.79-.32-.98-.29-.26-.73-.39-1.3-.39-.54,0-.93.09-1.19.28-.26.19-.45.52-.57,1l-1.12-.15c.1-.48.27-.86.5-1.16s.57-.52,1.01-.68c.44-.16.95-.24,1.53-.24s1.04.07,1.4.2.62.31.79.51.29.46.36.78c.04.2.06.55.06,1.05v1.52c0,1.06.02,1.73.07,2.01.05.28.15.55.29.81h-1.19c-.12-.24-.19-.51-.23-.83Zm-.1-2.55c-.41.17-1.04.31-1.87.43-.47.07-.8.14-1,.23-.19.08-.34.21-.45.37s-.16.34-.16.54c0,.3.12.56.35.76.23.2.57.3,1.01.3s.83-.1,1.17-.29.59-.46.76-.79c.12-.26.18-.64.18-1.14v-.42Z" fill="#fff"/><path d="m610.97,219.6v-6.74h1.03v1.02c.26-.48.5-.79.73-.95.22-.15.47-.23.73-.23.39,0,.78.12,1.17.37l-.39,1.06c-.28-.17-.56-.25-.84-.25-.25,0-.47.08-.67.23s-.34.36-.43.62c-.13.41-.19.85-.19,1.33v3.53h-1.14Z" fill="#fff"/></g></g><path d="m383.5,210.5c0-3.87,3.13-7,7-7h42c3.87,0,7,3.13,7,7v28c0,3.87-3.13,7-7,7h-42c-3.87,0-7-3.13-7-7v-28Z" fill="#bf9000" fill-rule="evenodd" stroke="#ffc000" stroke-miterlimit="8" stroke-width=".67"/><g isolation="isolate"><text transform="translate(390.41 222)" font-family="Arial-BoldMT, Arial" font-size="8" font-weight="700" isolation="isolate"><tspan x="0" y="0">Formulario </tspan></text><text transform="translate(401.69 232)" font-family="Arial-BoldMT, Arial" font-size="8" font-weight="700" isolation="isolate"><tspan x="0" y="0">JSON</tspan></text></g><path d="m443.5,211.33c0-3.77,3.06-6.83,6.83-6.83h46.33c3.77,0,6.83,3.06,6.83,6.83v27.33c0,3.77-3.06,6.83-6.83,6.83h-46.33c-3.77,0-6.83-3.06-6.83-6.83v-27.33Z" fill="#bf9000" fill-rule="evenodd" stroke="#ffc000" stroke-miterlimit="8" stroke-width=".67"/><g isolation="isolate"><g isolation="isolate"><path d="m464.74,219.89l1.12.36c-.17.62-.46,1.09-.86,1.39s-.91.46-1.52.46c-.76,0-1.39-.26-1.88-.78s-.73-1.23-.73-2.13c0-.95.25-1.69.74-2.22s1.14-.79,1.94-.79c.7,0,1.27.21,1.71.62.26.25.46.6.59,1.05l-1.14.27c-.07-.3-.21-.53-.42-.7s-.48-.26-.78-.26c-.42,0-.77.15-1.03.46s-.4.8-.4,1.48c0,.72.13,1.24.39,1.55s.6.46,1.02.46c.31,0,.57-.1.79-.29s.38-.5.48-.92Z"/><path d="m466.6,219.87c0-.36.09-.72.27-1.06s.43-.6.76-.78.7-.27,1.1-.27c.63,0,1.14.2,1.54.61s.6.92.6,1.54-.2,1.15-.61,1.56-.91.62-1.53.62c-.38,0-.74-.09-1.09-.26s-.61-.42-.79-.76-.27-.74-.27-1.21Zm1.12.06c0,.41.1.73.29.95s.44.33.72.33.53-.11.72-.33.29-.54.29-.95-.1-.72-.29-.94-.43-.33-.72-.33-.53.11-.72.33-.29.53-.29.95Zm.46-2.58l.54-1.17h1.23l-1.07,1.17h-.7Z"/><path d="m475.54,222h-1.02v-.61c-.17.24-.37.41-.6.53s-.46.17-.7.17c-.48,0-.88-.19-1.22-.58s-.51-.92-.51-1.61.17-1.24.5-1.6.75-.55,1.25-.55c.46,0,.86.19,1.2.58v-2.06h1.1v5.73Zm-2.93-2.16c0,.44.06.76.18.96.18.29.42.43.74.43.25,0,.47-.11.64-.32s.27-.54.27-.96c0-.48-.09-.82-.26-1.03s-.39-.31-.66-.31-.48.1-.65.31-.26.52-.26.93Z"/><path d="m476.62,217.29v-1.02h1.1v1.02h-1.1Zm0,4.71v-4.15h1.1v4.15h-1.1Z"/><path d="m478.74,222.27l1.25.15c.02.15.07.25.14.3.1.08.27.12.49.12.29,0,.5-.04.64-.13.1-.06.17-.15.22-.28.03-.09.05-.26.05-.5v-.61c-.33.45-.74.67-1.24.67-.56,0-1-.24-1.32-.71-.26-.37-.38-.84-.38-1.39,0-.7.17-1.23.5-1.59s.75-.55,1.25-.55.94.23,1.27.68v-.58h1.03v3.72c0,.49-.04.86-.12,1.1s-.19.43-.34.57-.34.25-.58.32-.55.12-.92.12c-.7,0-1.2-.12-1.5-.36s-.44-.55-.44-.92c0-.04,0-.08,0-.13Zm.98-2.43c0,.44.09.76.26.97s.38.31.63.31c.27,0,.49-.1.68-.31s.28-.52.28-.93-.09-.75-.27-.96-.4-.31-.67-.31-.48.1-.65.31-.26.52-.26.94Z"/><path d="m483.48,219.87c0-.36.09-.72.27-1.06s.43-.6.76-.78.7-.27,1.1-.27c.63,0,1.14.2,1.54.61s.6.92.6,1.54-.2,1.15-.61,1.56-.91.62-1.53.62c-.38,0-.74-.09-1.09-.26s-.61-.42-.79-.76-.27-.74-.27-1.21Zm1.12.06c0,.41.1.73.29.95s.44.33.72.33.53-.11.72-.33.29-.54.29-.95-.1-.72-.29-.94-.43-.33-.72-.33-.53.11-.72.33-.29.53-.29.95Z"/><path d="m447.92,227.45h1.02v.61c.13-.21.31-.38.54-.51s.48-.2.75-.2c.48,0,.89.19,1.23.57s.5.9.5,1.58-.17,1.23-.51,1.62-.75.58-1.23.58c-.23,0-.44-.05-.62-.14s-.38-.25-.59-.47v2.09h-1.1v-5.73Zm1.09,2c0,.47.09.81.28,1.03s.41.33.68.33.47-.1.64-.31.25-.54.25-1.01c0-.43-.09-.76-.26-.97s-.39-.32-.65-.32-.49.1-.67.31-.27.51-.27.92Z"/><path d="m455.24,230.28l1.09.18c-.14.4-.36.71-.67.92s-.68.31-1.14.31c-.72,0-1.26-.24-1.6-.71-.27-.38-.41-.85-.41-1.43,0-.69.18-1.23.54-1.62s.81-.58,1.36-.58c.62,0,1.1.2,1.46.61s.53,1.03.51,1.87h-2.75c0,.33.1.58.27.76s.38.27.63.27c.17,0,.32-.05.43-.14s.21-.25.27-.45Zm.06-1.11c0-.32-.09-.56-.25-.72s-.35-.25-.57-.25c-.24,0-.44.09-.59.26s-.23.41-.23.71h1.64Z"/><path d="m458.34,231.6h-1.1v-4.15h1.02v.59c.17-.28.33-.46.47-.55s.3-.13.47-.13c.25,0,.49.07.72.21l-.34.96c-.19-.12-.36-.18-.52-.18s-.28.04-.39.13-.19.24-.25.46-.09.68-.09,1.39v1.28Z"/><path d="m460.01,230.42l1.1-.17c.05.21.14.38.29.49s.34.17.6.17c.28,0,.5-.05.64-.16.1-.07.14-.17.14-.29,0-.08-.03-.15-.08-.21-.05-.05-.18-.1-.37-.14-.89-.2-1.45-.37-1.68-.54-.33-.22-.49-.54-.49-.93,0-.36.14-.66.43-.91s.72-.37,1.32-.37.99.09,1.27.28.47.46.57.82l-1.04.19c-.04-.16-.13-.29-.25-.37s-.3-.13-.53-.13c-.29,0-.5.04-.62.12-.08.06-.12.13-.12.22,0,.08.04.14.11.2.1.07.44.18,1.03.31s.99.3,1.22.49c.23.2.34.47.34.82,0,.38-.16.71-.48.98s-.79.41-1.41.41c-.56,0-1.01-.11-1.34-.34s-.54-.54-.65-.93Z"/><path d="m464.6,229.47c0-.36.09-.72.27-1.06s.43-.6.76-.78.7-.27,1.1-.27c.63,0,1.14.2,1.54.61s.6.92.6,1.54-.2,1.15-.61,1.56-.91.62-1.53.62c-.38,0-.74-.09-1.09-.26s-.61-.42-.79-.76-.27-.74-.27-1.21Zm1.12.06c0,.41.1.73.29.95s.44.33.72.33.53-.11.72-.33.29-.54.29-.95-.1-.72-.29-.94-.43-.33-.72-.33-.53.11-.72.33-.29.53-.29.95Z"/><path d="m473.51,231.6h-1.1v-2.12c0-.45-.02-.74-.07-.87s-.12-.23-.23-.31-.23-.11-.38-.11c-.19,0-.36.05-.51.16s-.25.24-.31.41-.08.49-.08.95v1.88h-1.1v-4.15h1.02v.61c.36-.47.82-.7,1.37-.7.24,0,.46.04.66.13s.35.2.46.33.17.29.21.46.06.42.06.74v2.58Z"/><path d="m475.44,228.72l-1-.18c.11-.4.3-.7.58-.89s.68-.29,1.22-.29c.49,0,.85.06,1.09.17s.41.26.51.44.15.51.15.98v1.28c-.01.36,0,.63.04.81s.1.36.2.56h-1.09c-.03-.07-.06-.18-.11-.32-.02-.07-.03-.11-.04-.13-.19.18-.39.32-.6.41s-.44.14-.68.14c-.43,0-.76-.12-1.01-.35s-.37-.52-.37-.88c0-.23.06-.44.17-.63s.27-.32.47-.42.49-.18.87-.26c.51-.1.87-.19,1.07-.27v-.11c0-.21-.05-.36-.16-.45s-.3-.13-.59-.13c-.2,0-.35.04-.46.12s-.2.21-.27.4Zm1.47.89c-.14.05-.36.1-.67.17s-.5.13-.6.19c-.14.1-.21.23-.21.39s.06.29.17.4.26.17.44.17c.2,0,.39-.07.57-.2.13-.1.22-.22.26-.36.03-.09.04-.27.04-.54v-.22Z"/><path d="m479.07,231.6v-5.73h1.1v5.73h-1.1Z"/><path d="m481.29,226.89v-1.02h1.1v1.02h-1.1Zm0,4.71v-4.15h1.1v4.15h-1.1Z"/><path d="m483.08,231.6v-.86l1.55-1.79c.26-.29.44-.5.57-.62-.13,0-.3.01-.5.02h-1.46s0-.9,0-.9h3.43v.78l-1.59,1.83-.56.61c.3-.02.49-.03.57-.03h1.7v.96h-3.7Z"/><path d="m488.34,228.72l-1-.18c.11-.4.3-.7.58-.89s.68-.29,1.22-.29c.49,0,.85.06,1.09.17s.41.26.51.44.15.51.15.98v1.28c-.01.36,0,.63.04.81s.1.36.2.56h-1.09c-.03-.07-.06-.18-.11-.32-.02-.07-.03-.11-.04-.13-.19.18-.39.32-.6.41s-.44.14-.68.14c-.43,0-.76-.12-1.01-.35s-.37-.52-.37-.88c0-.23.06-.44.17-.63s.27-.32.47-.42.49-.18.87-.26c.51-.1.87-.19,1.07-.27v-.11c0-.21-.05-.36-.16-.45s-.3-.13-.59-.13c-.2,0-.35.04-.46.12s-.2.21-.27.4Zm1.47.89c-.14.05-.36.1-.67.17s-.5.13-.6.19c-.14.1-.21.23-.21.39s.06.29.17.4.26.17.44.17c.2,0,.39-.07.57-.2.13-.1.22-.22.26-.36.03-.09.04-.27.04-.54v-.22Z"/><path d="m495.77,231.6h-1.02v-.61c-.17.24-.37.41-.6.53s-.46.17-.7.17c-.48,0-.88-.19-1.22-.58s-.51-.92-.51-1.61.17-1.24.5-1.6.75-.55,1.25-.55c.46,0,.86.19,1.2.58v-2.06h1.1v5.73Zm-2.93-2.16c0,.44.06.76.18.96.18.29.42.43.74.43.25,0,.47-.11.64-.32s.27-.54.27-.96c0-.48-.09-.82-.26-1.03s-.39-.31-.66-.31-.48.1-.65.31-.26.52-.26.93Z"/><path d="m496.6,229.47c0-.36.09-.72.27-1.06s.43-.6.76-.78.7-.27,1.1-.27c.63,0,1.14.2,1.54.61s.6.92.6,1.54-.2,1.15-.61,1.56-.91.62-1.53.62c-.38,0-.74-.09-1.09-.26s-.61-.42-.79-.76-.27-.74-.27-1.21Zm1.12.06c0,.41.1.73.29.95s.44.33.72.33.53-.11.72-.33.29-.54.29-.95-.1-.72-.29-.94-.43-.33-.72-.33-.53.11-.72.33-.29.53-.29.95Z"/></g></g><path d="m721.5,209.5c0-4.42,3.58-8,8-8h59c4.42,0,8,3.58,8,8v32c0,4.42-3.58,8-8,8h-59c-4.42,0-8-3.58-8-8v-32Z" fill="#bf9000" fill-rule="evenodd" stroke="#ffc000" stroke-miterlimit="8" stroke-width=".67"/><g isolation="isolate"><text transform="translate(735.53 221)" font-family="ArialMT, Arial" font-size="10" isolation="isolate"><tspan x="0" y="0">Formulario </tspan></text><text transform="translate(747.72 237)" font-family="ArialMT, Arial" font-size="10" isolation="isolate"><tspan x="0" y="0">JSON</tspan></text></g><path d="m717.5,495.17c0-5.34,4.33-9.67,9.67-9.67h90.67c5.34,0,9.67,4.33,9.67,9.67v38.67c0,5.34-4.33,9.67-9.67,9.67h-90.67c-5.34,0-9.67-4.33-9.67-9.67v-38.67Z" fill="#bf9000" fill-rule="evenodd" stroke="#ffc000" stroke-miterlimit="8" stroke-width=".67"/><g isolation="isolate"><g isolation="isolate"><path d="m733.36,509v-11.45h7.73v1.35h-6.21v3.55h5.38v1.35h-5.38v5.2h-1.52Z"/><path d="m742.35,504.85c0-1.54.43-2.67,1.28-3.41.71-.61,1.58-.92,2.61-.92,1.14,0,2.07.37,2.8,1.12.72.75,1.09,1.78,1.09,3.1,0,1.07-.16,1.91-.48,2.52s-.79,1.09-1.4,1.43c-.61.34-1.28.51-2,.51-1.16,0-2.1-.37-2.82-1.12-.72-.75-1.07-1.82-1.07-3.22Zm1.45,0c0,1.06.23,1.86.7,2.39.46.53,1.05.79,1.75.79s1.28-.27,1.74-.8c.46-.53.7-1.34.7-2.43,0-1.03-.23-1.8-.7-2.33-.47-.53-1.05-.79-1.74-.79s-1.29.26-1.75.79c-.46.53-.7,1.32-.7,2.38Z"/><path d="m751.76,509v-8.3h1.27v1.26c.32-.59.62-.98.89-1.16s.57-.28.9-.28c.47,0,.96.15,1.45.45l-.48,1.3c-.34-.2-.69-.3-1.03-.3-.31,0-.58.09-.83.28-.25.18-.42.44-.52.77-.16.5-.23,1.05-.23,1.64v4.34h-1.41Z"/><path d="m757.1,509v-8.3h1.26v1.16c.26-.41.61-.73,1.04-.98.43-.25.92-.37,1.48-.37.61,0,1.12.13,1.51.38.39.25.67.61.83,1.07.66-.97,1.51-1.45,2.56-1.45.82,0,1.46.23,1.9.68.44.46.66,1.16.66,2.11v5.7h-1.4v-5.23c0-.56-.05-.97-.14-1.21-.09-.25-.26-.45-.5-.6-.24-.15-.52-.23-.84-.23-.58,0-1.07.19-1.45.58-.39.39-.58,1.01-.58,1.86v4.82h-1.41v-5.39c0-.62-.12-1.09-.34-1.41-.23-.31-.6-.47-1.12-.47-.4,0-.76.1-1.1.31s-.58.51-.73.91c-.15.4-.23.98-.23,1.73v4.3h-1.41Z"/><path d="m775.87,509v-1.22c-.65.94-1.52,1.41-2.63,1.41-.49,0-.95-.09-1.37-.28-.42-.19-.74-.42-.95-.71-.21-.28-.35-.63-.43-1.04-.06-.28-.09-.71-.09-1.31v-5.14h1.41v4.6c0,.73.03,1.23.09,1.48.09.37.28.66.56.87.29.21.64.32,1.06.32s.82-.11,1.19-.32c.37-.22.63-.51.79-.88.15-.37.23-.91.23-1.62v-4.45h1.41v8.3h-1.26Z"/><path d="m779.3,509v-11.45h1.41v11.45h-1.41Z"/><path d="m788.3,507.98c-.52.44-1.02.75-1.5.94-.48.18-1,.27-1.55.27-.91,0-1.61-.22-2.1-.67-.49-.45-.73-1.01-.73-1.71,0-.41.09-.78.28-1.11.18-.34.43-.61.73-.81.3-.2.64-.36,1.01-.46.28-.07.69-.14,1.25-.21,1.13-.14,1.97-.3,2.51-.48,0-.19,0-.32,0-.37,0-.57-.13-.98-.4-1.21-.36-.32-.89-.48-1.6-.48-.66,0-1.15.12-1.46.35-.32.23-.55.64-.7,1.23l-1.38-.19c.12-.59.33-1.06.62-1.43.29-.36.7-.64,1.24-.84.54-.2,1.17-.29,1.88-.29s1.28.08,1.73.25c.44.17.77.38.98.63.21.25.35.57.44.96.05.24.07.67.07,1.3v1.88c0,1.31.03,2.13.09,2.48.06.35.18.68.36,1h-1.47c-.15-.29-.24-.63-.28-1.02Zm-.12-3.14c-.51.21-1.28.39-2.3.53-.58.08-.99.18-1.23.28-.24.1-.42.26-.55.46-.13.2-.2.42-.2.67,0,.38.14.69.43.94.28.25.7.38,1.25.38s1.02-.12,1.45-.36.73-.56.93-.97c.15-.32.23-.79.23-1.41v-.52Z"/><path d="m791.77,509v-8.3h1.27v1.26c.32-.59.62-.98.89-1.16s.57-.28.9-.28c.47,0,.96.15,1.45.45l-.48,1.3c-.34-.2-.69-.3-1.03-.3-.31,0-.58.09-.83.28-.25.18-.42.44-.52.77-.16.5-.23,1.05-.23,1.64v4.34h-1.41Z"/><path d="m797.12,499.16v-1.62h1.41v1.62h-1.41Zm0,9.84v-8.3h1.41v8.3h-1.41Z"/><path d="m800.14,504.85c0-1.54.43-2.67,1.28-3.41.71-.61,1.58-.92,2.61-.92,1.14,0,2.07.37,2.8,1.12.72.75,1.09,1.78,1.09,3.1,0,1.07-.16,1.91-.48,2.52s-.79,1.09-1.4,1.43c-.61.34-1.28.51-2,.51-1.16,0-2.1-.37-2.82-1.12-.72-.75-1.07-1.82-1.07-3.22Zm1.45,0c0,1.06.23,1.86.7,2.39.46.53,1.05.79,1.75.79s1.28-.27,1.74-.8c.46-.53.7-1.34.7-2.43,0-1.03-.23-1.8-.7-2.33-.47-.53-1.05-.79-1.74-.79s-1.29.26-1.75.79c-.46.53-.7,1.32-.7,2.38Z"/><path d="m731.3,531.38v-11.48h1.28v1.08c.3-.42.64-.74,1.02-.95.38-.21.84-.32,1.38-.32.71,0,1.33.18,1.88.55.54.36.95.88,1.23,1.54.28.66.41,1.39.41,2.18,0,.85-.15,1.61-.46,2.29s-.75,1.2-1.33,1.56c-.58.36-1.19.54-1.83.54-.47,0-.89-.1-1.26-.3-.37-.2-.68-.45-.92-.75v4.04h-1.41Zm1.27-7.28c0,1.07.22,1.86.65,2.37.43.51.96.77,1.57.77s1.16-.26,1.61-.79.67-1.35.67-2.46-.22-1.85-.65-2.38c-.44-.53-.96-.79-1.56-.79s-1.13.28-1.59.84-.69,1.37-.69,2.44Z"/><path d="m740.18,528.2v-8.3h1.27v1.26c.32-.59.62-.98.89-1.16s.57-.28.9-.28c.47,0,.96.15,1.45.45l-.48,1.3c-.34-.2-.69-.3-1.03-.3-.31,0-.58.09-.83.28-.25.18-.42.44-.52.77-.16.5-.23,1.05-.23,1.64v4.34h-1.41Z"/><path d="m751.21,525.53l1.45.18c-.23.85-.65,1.51-1.27,1.98-.62.47-1.41.7-2.38.7-1.21,0-2.18-.37-2.89-1.12s-1.07-1.8-1.07-3.14.36-2.48,1.08-3.25,1.65-1.16,2.8-1.16,2.02.38,2.72,1.13,1.05,1.82,1.05,3.19c0,.08,0,.21,0,.38h-6.19c.05.91.31,1.61.77,2.09.46.48,1.04.73,1.73.73.52,0,.96-.14,1.32-.41.36-.27.65-.7.87-1.3Zm-4.62-2.27h4.63c-.06-.7-.24-1.22-.53-1.57-.45-.54-1.03-.81-1.74-.81-.65,0-1.19.22-1.63.65-.44.43-.68,1.01-.73,1.73Z"/><path d="m753.86,525.72l1.39-.22c.08.56.29.98.65,1.28.36.3.86.45,1.5.45s1.12-.13,1.44-.39.47-.57.47-.93c0-.32-.14-.57-.41-.75-.19-.12-.67-.28-1.44-.48-1.03-.26-1.75-.49-2.14-.68s-.7-.45-.91-.79c-.21-.34-.31-.71-.31-1.11,0-.37.08-.71.25-1.03.17-.32.4-.58.69-.79.22-.16.52-.3.89-.41.38-.11.78-.17,1.21-.17.65,0,1.22.09,1.71.28s.86.44,1.09.76.4.75.48,1.29l-1.38.19c-.06-.43-.24-.76-.54-1-.3-.24-.72-.36-1.27-.36-.65,0-1.11.11-1.38.32-.28.21-.41.46-.41.75,0,.18.06.35.17.49.11.15.29.28.54.38.14.05.55.17,1.24.36.99.27,1.69.48,2.08.65.39.17.7.42.93.74.22.32.34.72.34,1.2s-.14.91-.41,1.32-.67.73-1.18.96-1.1.34-1.75.34c-1.08,0-1.9-.22-2.46-.67-.57-.45-.93-1.11-1.08-1.99Z"/><path d="m768.11,525.53l1.45.18c-.23.85-.65,1.51-1.27,1.98-.62.47-1.41.7-2.38.7-1.21,0-2.18-.37-2.89-1.12s-1.07-1.8-1.07-3.14.36-2.48,1.08-3.25,1.65-1.16,2.8-1.16,2.02.38,2.72,1.13,1.05,1.82,1.05,3.19c0,.08,0,.21,0,.38h-6.19c.05.91.31,1.61.77,2.09.46.48,1.04.73,1.73.73.52,0,.96-.14,1.32-.41.36-.27.65-.7.87-1.3Zm-4.62-2.27h4.63c-.06-.7-.24-1.22-.53-1.57-.45-.54-1.03-.81-1.74-.81-.65,0-1.19.22-1.63.65-.44.43-.68,1.01-.73,1.73Z"/><path d="m771.32,528.2v-8.3h1.27v1.18c.61-.91,1.49-1.37,2.64-1.37.5,0,.96.09,1.38.27.42.18.73.42.94.71.21.29.35.64.44,1.04.05.26.08.72.08,1.37v5.1h-1.41v-5.05c0-.57-.05-1-.16-1.29s-.3-.51-.58-.68c-.28-.17-.61-.25-.98-.25-.6,0-1.12.19-1.55.57-.44.38-.65,1.1-.65,2.16v4.53h-1.41Z"/><path d="m783.29,526.94l.2,1.24c-.4.08-.75.12-1.06.12-.51,0-.91-.08-1.19-.24s-.48-.37-.59-.64c-.12-.26-.17-.82-.17-1.66v-4.77h-1.03v-1.09h1.03v-2.05l1.4-.84v2.9h1.41v1.09h-1.41v4.85c0,.4.02.66.07.77.05.11.13.21.24.27.11.07.27.1.48.1.16,0,.36-.02.62-.05Z"/><path d="m790.08,527.18c-.52.44-1.02.75-1.5.94-.48.18-1,.27-1.55.27-.91,0-1.61-.22-2.1-.67-.49-.45-.73-1.01-.73-1.71,0-.41.09-.78.28-1.11.18-.34.43-.61.73-.81.3-.2.64-.36,1.01-.46.28-.07.69-.14,1.25-.21,1.13-.14,1.97-.3,2.51-.48,0-.19,0-.32,0-.37,0-.57-.13-.98-.4-1.21-.36-.32-.89-.48-1.6-.48-.66,0-1.15.12-1.46.35-.32.23-.55.64-.7,1.23l-1.38-.19c.12-.59.33-1.06.62-1.43.29-.36.7-.64,1.24-.84.54-.2,1.17-.29,1.88-.29s1.28.08,1.73.25c.44.17.77.38.98.63.21.25.35.57.44.96.05.24.07.67.07,1.3v1.88c0,1.31.03,2.13.09,2.48.06.35.18.68.36,1h-1.47c-.15-.29-.24-.63-.28-1.02Zm-.12-3.14c-.51.21-1.28.39-2.3.53-.58.08-.99.18-1.23.28-.24.1-.42.26-.55.46-.13.2-.2.42-.2.67,0,.38.14.69.43.94.28.25.7.38,1.25.38s1.02-.12,1.45-.36.73-.56.93-.97c.15-.32.23-.79.23-1.41v-.52Z"/><path d="m798.95,528.2v-1.05c-.53.82-1.3,1.23-2.32,1.23-.66,0-1.27-.18-1.82-.55s-.98-.87-1.29-1.53-.46-1.41-.46-2.25.14-1.58.41-2.25c.28-.67.69-1.19,1.24-1.55.55-.36,1.17-.54,1.85-.54.5,0,.95.11,1.34.32s.71.49.95.82v-4.11h1.4v11.45h-1.3Zm-4.45-4.14c0,1.06.22,1.86.67,2.38.45.53.98.79,1.59.79s1.14-.25,1.57-.75.64-1.27.64-2.3c0-1.14-.22-1.97-.66-2.5s-.98-.8-1.62-.8-1.15.25-1.57.77c-.42.51-.63,1.32-.63,2.41Z"/><path d="m801.94,524.05c0-1.54.43-2.67,1.28-3.41.71-.61,1.58-.92,2.61-.92,1.14,0,2.07.37,2.8,1.12.72.75,1.09,1.78,1.09,3.1,0,1.07-.16,1.91-.48,2.52s-.79,1.09-1.4,1.43c-.61.34-1.28.51-2,.51-1.16,0-2.1-.37-2.82-1.12-.72-.75-1.07-1.82-1.07-3.22Zm1.45,0c0,1.06.23,1.86.7,2.39.46.53,1.05.79,1.75.79s1.28-.27,1.74-.8c.46-.53.7-1.34.7-2.43,0-1.03-.23-1.8-.7-2.33-.47-.53-1.05-.79-1.74-.79s-1.29.26-1.75.79c-.46.53-.7,1.32-.7,2.38Z"/></g></g><path d="m371.51,346.5c0-3.87,4.03-7,9-7h53.99c4.97,0,9,3.13,9,7v28c0,3.87-4.03,7-9,7h-53.99c-4.97,0-9-3.13-9-7v-28Z" fill="#bf9000" fill-rule="evenodd" stroke="#ffc000" stroke-miterlimit="8" stroke-width=".67"/><g isolation="isolate"><text transform="translate(383.85 356)" font-family="ArialMT, Arial" font-size="10" isolation="isolate"><tspan x="0" y="0">Formulario </tspan></text><text transform="translate(396.05 372)" font-family="ArialMT, Arial" font-size="10" isolation="isolate"><tspan x="0" y="0">JSON</tspan></text></g><path d="m443.5,360.55h114.96v-106.05l-.33.33h69.55v-.67h-69.89v106.05l.33-.33h-114.62v.67Zm182.84-102.05l8-4-8-4v8Z"/><path d="m518.5,299.83c0-2.95,2.39-5.33,5.33-5.33h87.33c2.95,0,5.33,2.39,5.33,5.33v21.33c0,2.95-2.39,5.33-5.33,5.33h-87.33c-2.95,0-5.33-2.39-5.33-5.33v-21.33Z" fill="#4472c4" fill-rule="evenodd" stroke="#2f528f" stroke-miterlimit="8" stroke-width="1.33"/><g isolation="isolate"><g isolation="isolate"><path d="m556.72,302.74l1.23.31c-.26,1.01-.72,1.78-1.39,2.31-.67.53-1.49.8-2.46.8s-1.82-.2-2.45-.61c-.63-.41-1.11-1-1.43-1.77-.33-.77-.49-1.61-.49-2.49,0-.97.19-1.81.56-2.54.37-.72.9-1.27,1.58-1.64.68-.38,1.44-.56,2.26-.56.93,0,1.71.24,2.35.71.63.47,1.08,1.14,1.33,2l-1.21.29c-.22-.68-.53-1.17-.94-1.48s-.93-.46-1.55-.46c-.72,0-1.31.17-1.79.51-.48.34-.82.8-1.01,1.38-.19.58-.29,1.17-.29,1.79,0,.79.12,1.48.35,2.07.23.59.59,1.03,1.08,1.32s1.01.44,1.58.44c.69,0,1.27-.2,1.75-.6.48-.4.8-.99.97-1.77Z" fill="#fff"/><path d="m563.72,305.17c-.42.36-.83.61-1.22.76-.39.15-.81.22-1.26.22-.74,0-1.31-.18-1.71-.54-.4-.36-.6-.82-.6-1.39,0-.33.08-.63.23-.9.15-.27.35-.49.59-.66.24-.17.52-.29.82-.37.22-.06.56-.12,1.02-.17.92-.11,1.6-.24,2.04-.39,0-.16,0-.26,0-.3,0-.47-.11-.79-.32-.98-.29-.26-.73-.39-1.3-.39-.54,0-.93.09-1.19.28-.26.19-.45.52-.57,1l-1.12-.15c.1-.48.27-.86.5-1.16s.57-.52,1.01-.68c.44-.16.95-.24,1.53-.24s1.04.07,1.4.2.62.31.79.51.29.46.36.78c.04.2.06.55.06,1.05v1.52c0,1.06.02,1.73.07,2.01.05.28.15.55.29.81h-1.19c-.12-.24-.19-.51-.23-.83Zm-.1-2.55c-.41.17-1.04.31-1.87.43-.47.07-.8.14-1,.23-.19.08-.34.21-.45.37s-.16.34-.16.54c0,.3.12.56.35.76.23.2.57.3,1.01.3s.83-.1,1.17-.29.59-.46.76-.79c.12-.26.18-.64.18-1.14v-.42Z" fill="#fff"/><path d="m566.54,306v-6.74h1.03v1.02c.26-.48.5-.79.73-.95.22-.15.47-.23.73-.23.39,0,.78.12,1.17.37l-.39,1.06c-.28-.17-.56-.25-.84-.25-.25,0-.47.08-.67.23s-.34.36-.43.62c-.13.41-.19.85-.19,1.33v3.53h-1.14Z" fill="#fff"/><path d="m570.67,306.56l1.11.17c.05.34.18.59.39.75.28.21.67.32,1.16.32.53,0,.94-.11,1.23-.32s.48-.51.58-.89c.06-.23.09-.72.08-1.47-.5.59-1.12.88-1.87.88-.93,0-1.64-.33-2.15-1s-.76-1.47-.76-2.41c0-.64.12-1.24.35-1.78s.57-.96,1.01-1.26c.44-.3.96-.44,1.56-.44.8,0,1.45.32,1.97.96v-.81h1.05v5.83c0,1.05-.11,1.79-.32,2.23-.21.44-.55.78-1.02,1.04-.46.25-1.03.38-1.71.38-.8,0-1.45-.18-1.95-.54-.5-.36-.73-.91-.72-1.63Zm.95-4.05c0,.88.18,1.53.53,1.94s.79.61,1.32.61.96-.2,1.32-.61.53-1.04.53-1.9-.18-1.45-.55-1.87c-.37-.42-.81-.63-1.32-.63s-.94.21-1.29.62c-.36.41-.53,1.03-.53,1.84Z" fill="#fff"/><path d="m582.51,305.17c-.42.36-.83.61-1.22.76-.39.15-.81.22-1.26.22-.74,0-1.31-.18-1.71-.54-.4-.36-.6-.82-.6-1.39,0-.33.08-.63.23-.9.15-.27.35-.49.59-.66.24-.17.52-.29.82-.37.22-.06.56-.12,1.02-.17.92-.11,1.6-.24,2.04-.39,0-.16,0-.26,0-.3,0-.47-.11-.79-.32-.98-.29-.26-.73-.39-1.3-.39-.54,0-.93.09-1.19.28-.26.19-.45.52-.57,1l-1.12-.15c.1-.48.27-.86.5-1.16s.57-.52,1.01-.68c.44-.16.95-.24,1.53-.24s1.04.07,1.4.2.62.31.79.51.29.46.36.78c.04.2.06.55.06,1.05v1.52c0,1.06.02,1.73.07,2.01.05.28.15.55.29.81h-1.19c-.12-.24-.19-.51-.23-.83Zm-.1-2.55c-.41.17-1.04.31-1.87.43-.47.07-.8.14-1,.23-.19.08-.34.21-.45.37s-.16.34-.16.54c0,.3.12.56.35.76.23.2.57.3,1.01.3s.83-.1,1.17-.29.59-.46.76-.79c.12-.26.18-.64.18-1.14v-.42Z" fill="#fff"/><path d="m585.33,306v-6.74h1.03v1.02c.26-.48.5-.79.73-.95.22-.15.47-.23.73-.23.39,0,.78.12,1.17.37l-.39,1.06c-.28-.17-.56-.25-.84-.25-.25,0-.47.08-.67.23s-.34.36-.43.62c-.13.41-.19.85-.19,1.33v3.53h-1.14Z" fill="#fff"/><path d="m536.6,321.6v-.85c-.43.67-1.06,1-1.89,1-.54,0-1.03-.15-1.48-.44-.45-.3-.8-.71-1.05-1.24-.25-.53-.37-1.14-.37-1.83s.11-1.28.34-1.83.56-.97,1.01-1.26c.45-.29.95-.44,1.5-.44.41,0,.77.09,1.09.26.32.17.58.39.77.67v-3.34h1.14v9.31h-1.06Zm-3.61-3.36c0,.86.18,1.51.55,1.94.36.43.79.64,1.29.64s.92-.2,1.27-.61c.35-.41.52-1.03.52-1.87,0-.92-.18-1.6-.53-2.03s-.79-.65-1.31-.65-.93.21-1.27.62c-.34.42-.51,1.07-.51,1.96Z" fill="#fff"/><path d="m539.46,313.61v-1.31h1.14v1.31h-1.14Zm0,7.99v-6.74h1.14v6.74h-1.14Z" fill="#fff"/><path d="m542.33,321.6v-6.74h1.03v1.02c.26-.48.5-.79.73-.95.22-.15.47-.23.73-.23.39,0,.78.12,1.17.37l-.39,1.06c-.28-.17-.56-.25-.84-.25-.25,0-.47.08-.67.23s-.34.36-.43.62c-.13.41-.19.85-.19,1.33v3.53h-1.14Z" fill="#fff"/><path d="m551.29,319.43l1.18.15c-.19.69-.53,1.23-1.03,1.61s-1.15.57-1.93.57c-.99,0-1.77-.3-2.35-.91-.58-.61-.87-1.46-.87-2.55s.29-2.01.88-2.64,1.34-.94,2.27-.94,1.64.31,2.21.92c.57.61.86,1.48.86,2.59,0,.07,0,.17,0,.3h-5.03c.04.74.25,1.31.63,1.7.38.39.85.59,1.41.59.42,0,.78-.11,1.07-.33s.53-.57.7-1.05Zm-3.75-1.85h3.76c-.05-.57-.19-.99-.43-1.28-.36-.44-.84-.66-1.42-.66-.52,0-.97.18-1.32.53-.36.35-.56.82-.59,1.41Z" fill="#fff"/><path d="m558.3,319.13l1.12.15c-.12.77-.44,1.38-.94,1.82-.51.44-1.13.66-1.86.66-.92,0-1.66-.3-2.23-.9-.56-.6-.84-1.47-.84-2.59,0-.73.12-1.36.36-1.91s.61-.96,1.1-1.23c.49-.27,1.03-.41,1.61-.41.73,0,1.33.19,1.8.56s.76.9.9,1.58l-1.11.17c-.11-.45-.29-.79-.56-1.02-.27-.23-.59-.34-.97-.34-.58,0-1.04.21-1.4.62-.36.41-.54,1.07-.54,1.96s.17,1.56.52,1.97c.35.41.8.62,1.36.62.45,0,.82-.14,1.12-.41.3-.28.49-.7.57-1.27Z" fill="#fff"/><path d="m562.9,320.58l.17,1.01c-.32.07-.61.1-.86.1-.41,0-.74-.07-.96-.2-.23-.13-.39-.3-.48-.52s-.14-.66-.14-1.35v-3.88h-.84v-.89h.84v-1.67l1.14-.69v2.35h1.15v.89h-1.15v3.94c0,.33.02.54.06.63.04.09.11.17.2.22.09.06.22.08.39.08.13,0,.29-.01.5-.04Z" fill="#fff"/><path d="m568.41,320.77c-.42.36-.83.61-1.22.76-.39.15-.81.22-1.26.22-.74,0-1.31-.18-1.71-.54-.4-.36-.6-.82-.6-1.39,0-.33.08-.63.23-.9.15-.27.35-.49.59-.66.24-.17.52-.29.82-.37.22-.06.56-.12,1.02-.17.92-.11,1.6-.24,2.04-.39,0-.16,0-.26,0-.3,0-.47-.11-.79-.32-.98-.29-.26-.73-.39-1.3-.39-.54,0-.93.09-1.19.28-.26.19-.45.52-.57,1l-1.12-.15c.1-.48.27-.86.5-1.16s.57-.52,1.01-.68c.44-.16.95-.24,1.53-.24s1.04.07,1.4.2.62.31.79.51.29.46.36.78c.04.2.06.55.06,1.05v1.52c0,1.06.02,1.73.07,2.01.05.28.15.55.29.81h-1.19c-.12-.24-.19-.51-.23-.83Zm-.1-2.55c-.41.17-1.04.31-1.87.43-.47.07-.8.14-1,.23-.19.08-.34.21-.45.37s-.16.34-.16.54c0,.3.12.56.35.76.23.2.57.3,1.01.3s.83-.1,1.17-.29.59-.46.76-.79c.12-.26.18-.64.18-1.14v-.42Z" fill="#fff"/><path d="m571.24,321.6v-6.74h1.02v.95c.21-.33.49-.6.84-.8s.75-.3,1.2-.3c.5,0,.91.1,1.23.31.32.21.54.5.68.87.53-.79,1.23-1.18,2.08-1.18.67,0,1.18.19,1.54.56s.54.94.54,1.71v4.63h-1.14v-4.25c0-.46-.04-.79-.11-.99-.07-.2-.21-.36-.4-.49-.19-.12-.42-.18-.69-.18-.47,0-.87.16-1.18.47s-.47.82-.47,1.51v3.92h-1.14v-4.38c0-.51-.09-.89-.28-1.14s-.49-.38-.91-.38c-.32,0-.62.08-.89.25-.27.17-.47.42-.59.74-.12.33-.18.79-.18,1.41v3.5h-1.14Z" fill="#fff"/><path d="m586.69,319.43l1.18.15c-.19.69-.53,1.23-1.03,1.61s-1.15.57-1.93.57c-.99,0-1.77-.3-2.35-.91-.58-.61-.87-1.46-.87-2.55s.29-2.01.88-2.64,1.34-.94,2.27-.94,1.64.31,2.21.92c.57.61.86,1.48.86,2.59,0,.07,0,.17,0,.3h-5.03c.04.74.25,1.31.63,1.7.38.39.85.59,1.41.59.42,0,.78-.11,1.07-.33s.53-.57.7-1.05Zm-3.75-1.85h3.76c-.05-.57-.19-.99-.43-1.28-.36-.44-.84-.66-1.42-.66-.52,0-.97.18-1.32.53-.36.35-.56.82-.59,1.41Z" fill="#fff"/><path d="m589.3,321.6v-6.74h1.03v.96c.5-.74,1.21-1.11,2.15-1.11.41,0,.78.07,1.12.22.34.15.6.34.76.58.17.24.29.52.36.84.04.21.06.58.06,1.11v4.14h-1.14v-4.1c0-.47-.04-.81-.13-1.04s-.25-.42-.47-.55c-.23-.14-.49-.21-.8-.21-.49,0-.91.15-1.26.46-.35.31-.53.89-.53,1.76v3.68h-1.14Z" fill="#fff"/><path d="m599.03,320.58l.17,1.01c-.32.07-.61.1-.86.1-.41,0-.74-.07-.96-.2-.23-.13-.39-.3-.48-.52s-.14-.66-.14-1.35v-3.88h-.84v-.89h.84v-1.67l1.14-.69v2.35h1.15v.89h-1.15v3.94c0,.33.02.54.06.63.04.09.11.17.2.22.09.06.22.08.39.08.13,0,.29-.01.5-.04Z" fill="#fff"/><path d="m604.76,319.43l1.18.15c-.19.69-.53,1.23-1.03,1.61s-1.15.57-1.93.57c-.99,0-1.77-.3-2.35-.91-.58-.61-.87-1.46-.87-2.55s.29-2.01.88-2.64,1.34-.94,2.27-.94,1.64.31,2.21.92c.57.61.86,1.48.86,2.59,0,.07,0,.17,0,.3h-5.03c.04.74.25,1.31.63,1.7.38.39.85.59,1.41.59.42,0,.78-.11,1.07-.33s.53-.57.7-1.05Zm-3.75-1.85h3.76c-.05-.57-.19-.99-.43-1.28-.36-.44-.84-.66-1.42-.66-.52,0-.97.18-1.32.53-.36.35-.56.82-.59,1.41Z" fill="#fff"/></g></g></g></svg>